<svg viewBox="0 0 150 149" fill="none" xmlns="http://www.w3.org/2000/svg"><g id="Active Justia Benefits" clip-path="url(#clip0_227_645)"><path id="Vector" d="M62.163 26.11h-.586v-1.926h.586v1.926z" fill="#163F59"/><path id="Vector_2" d="M62.163 31.164h-.586v-3.249h.586v3.249z" fill="#163F59"/><path id="Vector_3" d="M62.163 35.014h-.586v-3.098h.586v3.098z" fill="#163F59"/><path id="Vector_4" d="M64.927 18.478H79.97a3.13 3.13 0 0 1 3.13 3.13v37.748a3.13 3.13 0 0 1-3.13 3.129H64.927a3.13 3.13 0 0 1-3.13-3.13V21.607a3.13 3.13 0 0 1 3.13-3.129z" fill="#163F59"/><path id="Vector_5" d="M64.927 18.92H79.97a2.69 2.69 0 0 1 2.688 2.688v37.748a2.69 2.69 0 0 1-2.688 2.688H64.927a2.689 2.689 0 0 1-2.688-2.688V21.608a2.69 2.69 0 0 1 2.688-2.688z" fill="#194866"/><path id="Vector_6" d="M81.716 24.033H63.18V57.07h18.535V24.033z" fill="#E9F6FF"/><path id="Vector_7" d="M64.682 27.67h15.647" stroke="#074FDE" stroke-width="4.296" stroke-miterlimit="10"/><path id="Vector_8" d="M70.125 35.834h9.524" stroke="#ABD3F7" stroke-width="4.296"/><path id="Vector_9" d="M70.125 38.556h5.443" stroke="#ABD3F7" stroke-width="4.296"/><path id="Vector_10" d="M70.125 41.957h9.524" stroke="#ABD3F7" stroke-width="4.296"/><path id="Vector_11" d="M70.125 44.679h5.443" stroke="#ABD3F7" stroke-width="4.296"/><path id="Vector_12" d="M70.125 48.08h9.524" stroke="#ABD3F7" stroke-width="4.296"/><path id="Vector_13" d="M70.125 50.801h5.443" stroke="#ABD3F7" stroke-width="4.296"/><path id="Vector_14" d="M64.682 30.391h12.926" stroke="#074FDE" stroke-width="4.296" stroke-miterlimit="10"/><path id="Vector_15" d="M68.083 35.834h-2.72v2.722h2.72v-2.722z" fill="#ABD3F7"/><path id="Vector_16" d="M68.083 41.957h-2.72v2.721h2.72v-2.721z" fill="#ABD3F7"/><path id="Vector_17" d="M68.083 48.08h-2.72v2.72h2.72v-2.72z" fill="#ABD3F7"/><path id="Vector_18" d="M112.186 119.584c-10.166-.212-41.666-1.105-60.785-3.576-35.45-4.583-64.394 2.822-45.367 11.382 5.317 2.392-9.996 16.637 27.529 19.938 32.94 2.897 66.508-3.095 82.756-5.662 16.248-2.569 23.741-7.171 27.221-9.245 3.06-1.824 4.179-12.097-31.354-12.837z" fill="#EAF4FE"/><path id="Vector_19" d="M89.872 75.434h4.696l-4.696-4.697v4.697z" fill="#fff"/><path id="Vector_20" d="M37.11 30.625l10.612-9.706s.706.854.44 1.633c-.728 2.112-3.334 6.348-4.989 8.137-2.26 2.445-4.985 4.403-4.985 4.403l-1.078-4.467z" fill="#E9D6B8"/><path id="Vector_21" d="M47.736 23.537l1.34-1.14s.663-.511 1.215-1.362c.553-.853.237-1.68-.477-2.361-.716-.681-1.255-.758-1.255-.758s-1.152.512-1.007 1.544c.149 1.03-.893 3.31-.5 3.474.397.163.684.602.684.602z" fill="#E9D6B8"/><path id="Vector_22" d="M48.065 18.121l1.334-1.438 1.301-1.28.165.375-.796 1.037-.425 2.17-.526-.29-1.053-.574z" fill="#E9D6B8"/><path id="Vector_23" d="M50.528 17.348l1.434-.75.26.315-1.28.996-.929 1.458-.895-.671 1.41-1.348z" fill="#E9D6B8"/><path id="Vector_24" d="M52.492 17.563l-1.18.524-.831.242-.572.763.534.76.59-.843 1.437-.955.022-.491z" fill="#E9D6B8"/><path id="Vector_25" d="M52.753 18.831l-2.255.578-.37.568.335.54.915-.632 1.214-.683.16-.37z" fill="#E9D6B8"/><path id="Vector_26" d="M46.386 23.509c.732-.742.57-1.844.57-1.844s-.33-2.756.074-3.21c.404-.455.657-1.632.657-1.632s.345-.439.493.676c.095.727-.042 1.38-.042 1.38s.744 1.503.687 1.99c-.113 1.006-1.921 2.771-1.921 2.771s-.61-.037-.517-.131z" fill="#E9D6B8"/><path id="Vector_27" d="M24.41 27.861l11.802 2.182.45.22.687-.013 1.496 4.524-3.4 2.555-16.062-3.27s-3.51-1.646-4.702-6.239c-.864-3.328 8.751-.097 9.73.041z" fill="#194866"/><path id="Vector_28" d="M36.267 35.974s.17-3.8.199-5.499l.197.886.686-1.111.504 2.12.384 2.331-.85.491-.275-.658-.845 1.44z" fill="#163F59"/><path id="Vector_29" d="M20.934 28.26s3.02 3.844 3.98 9.06c.96 5.215 1.098 19.078 2.608 27.724 1.51 8.647 1.23 8.783.133 8.783-4.695 0-12.49.274-12.078-8.236.411-8.51 2.063-35.82 2.886-37.193.824-1.373 1.236-1.373 2.47-.137z" fill="#194866"/><path id="Vector_30" d="M18.723 24.653c.031 1.5-.633 2.876-1.467 3.027-.798.085-1.597.168-2.396.252-.85.026-1.787-1.18-2.067-2.654-.455-2.435-.91-4.87-1.367-7.304-.285-1.46-.021-4.476 1.162-5.485 1.082-.898 2.42-1.04 3.668-.386 1.366.74 2.255 3.635 2.28 5.12l.186 7.43z" fill="#E2C59C"/><path id="Vector_31" d="M25.459 46.61l13.3.393s-9.855 5.934-13.436 2.942c-3.581-2.994.136-3.335.136-3.335z" fill="#E9D6B8"/><path id="Vector_32" d="M19.288 125.923l-.027 1.351-7.509-.16-.1-3.633 4.532-.054s2.395 2.287 3.104 2.495v.001z" fill="#161711"/><path id="Vector_33" d="M13.748 62.123s3.415 22.333 7.263 32.184c3.406 8.73 7.834-2.437 7.834-2.437l-5.764-37.473-10.787-1.049s-.748.259 1.454 8.775z" fill="#163F59"/><path id="Vector_34" d="M20.822 55.31l1.024 14.375-1.896 1.062s-1.537 21.287-1.914 22.358c-2.157 6.126-7.32 2.314-7.993.241-.67-2.071-1.54-17.313-1.066-28.412l.474-11.1 11.371 1.477z" fill="#194866"/><path id="Vector_35" d="M17.703 87.378s.786 3.813.51 10.99c-.178 4.546-.877 16.585-1.903 25.534-.063.547-4.532.036-4.532.036s-2.11-29.165-2.23-34.805c-.036-1.7 4.663-5.847 8.155-1.755z" fill="#194866"/><path id="Vector_36" d="M19.149 25.618l-7.026-1.57-3.604 4.054s-2.673 3.584-2.732 11.632c-.058 8.07 2.675 23.017 2.675 23.017l16.081-5.169s-.75-28.327-5.394-31.964z" fill="#88C3FD"/><path id="Vector_37" d="M18.465 25.363l-1.205 3.395-6.33-3.312.663-1.882 6.872 1.8z" fill="#58A2FF"/><path id="Vector_38" d="M18.79 24.517l-.145.759 1.42 2.066-.038-1.695-1.237-1.13z" fill="#58A2FF"/><path id="Vector_39" d="M27.046 91.328s-1.261.382-5.256.44c-3.979.058 4.443 32.248 4.443 32.248l5.693-1.956-3.384-32.297-1.496 1.565z" fill="#163F59"/><path id="Vector_40" d="M26.68 123.673l.475 2.816 2.86.062 2.681.056 3.754.08.022-1.031s-4.436-1.64-5.293-3.375c-.857-1.734-4.5 1.392-4.5 1.392z" fill="#161711"/><path id="Vector_41" d="M16.477 10.424l.163-1.705.704.068 1.857.177 1.121.106a2.257 2.257 0 0 1 2.03 2.46l-.163 1.702-.706-.067-1.858-.177-1.12-.107a2.25 2.25 0 0 1-2.028-2.457z" fill="#163F59"/><path id="Vector_42" d="M11.96 20.438a2.003 2.003 0 0 0 1.804 2.184l4.524.432a2.003 2.003 0 0 0 2.187-1.802l.864-9.051a2.005 2.005 0 0 0-1.804-2.187L15.01 9.58a2.006 2.006 0 0 0-2.186 1.805l-.863 9.052z" fill="#E9D6B8"/><path id="Vector_43" d="M16.497 8.705a2.252 2.252 0 0 0-1.972.836l-.77-.074a1.75 1.75 0 0 0-1.904 1.572l-.41 4.293 1.223.119.166-1.748a1.23 1.23 0 0 1 1.34-1.104l.713.067 1.858.177 1.12.108a2.252 2.252 0 0 0 2.457-2.03l.174-1.833-3.996-.383z" fill="#163F59"/><path id="Vector_44" d="M12.944 16.602a1.068 1.068 0 0 0-.963-1.165l-.088-.007a1.068 1.068 0 0 0-1.167.96l-.123 1.292a1.07 1.07 0 0 0 .963 1.168l.088.007a1.07 1.07 0 0 0 1.035-.542" fill="#E9D6B8"/><path id="Vector_45" d="M37.266 47.183s-.256-2.31.177-2.798c.433-.487 2.125-2.162 2.125-2.162l.468-.386s.671.306-.48 1.418c-1.15 1.113-.32.89-.32.89l1.39-.592 1.752-.588.749-.366s.41-.24.552-.21c.41.09.186.393.186.393l-2.805 1.683 2.962-.81s.394-.037.481.163c.082.189-.041.23-.041.23l-3.17 1.754 1.567-.234s.387-.024.48.164c.101.209.134.261.134.261l-5.946 1.794-.26-.605z" fill="#E9D6B8"/><path id="Vector_46" d="M41.367 44.972l2.112-.44s.464-.153.717-.081c.291.082.227.356.227.356l-3.132.996.076-.83z" fill="#E9D6B8"/><path id="Vector_47" d="M11.593 23.564s4.579 3.84 6.184 7.167c1.606 3.327 1.647 20.588-1.098 26.628-2.745 6.039-3.298 13.448-3.298 16.742 0 3.293-9.334-2.196-9.334-2.196s.005-7.135.28-12.9c.274-5.764 1.646-23.333 1.921-28 .274-4.666 5.345-7.44 5.345-7.44z" fill="#163F59"/><path id="Vector_48" d="M12.012 23.182s5.427 6.054 6.451 8.51c2.05 4.908 1.51 16.882-.136 21.274-1.648 4.393-1.922 5.215-1.922 5.215l.136-21.274-.686-4.392 1.236-.686-1.236-.686-4.803-7.137.96-.824z" fill="#163F59"/><path id="Vector_49" d="M10.49 27.523s-3.104 1.597-1.614 6.21c2.538 7.866 7.837 14.345 8.835 15.641.997 1.298 4.481 4.44 6.806 3.4l2.325-1.038.158-5.244-1.541-.157-.913-.172s-3.22-5.11-5.911-10.084c-2.69-4.975-8.144-8.556-8.144-8.556z" fill="#194866"/><path id="Vector_50" d="M14.483 37.594c2.196 3.843 6.588 11.666 8.098 12.078 1.02.278 3.102-.383 4.348-.841l-.087 2.905-2.325 1.038c-2.325 1.04-5.809-2.102-6.806-3.4-.818-1.06-4.52-5.6-7.227-11.53-.41-3.717 1.97-3.802 4-.25z" fill="#163F59"/><path id="Vector_51" d="M11.738 62.848l-4.804-1.921-.274 2.058 4.666 2.06.412-2.197z" fill="#194866"/><path id="Vector_52" d="M91.656 109.98H78.388v2.764h13.267v-2.764z" fill="#2A410C"/><path id="Vector_53" d="M57.046 111.108V75.911c0-1.046.85-1.896 1.895-1.896h51.71c1.047 0 1.896.85 1.896 1.896v35.197" fill="#194866"/><path id="Vector_54" d="M109.679 76.918H59.915v30.919h49.764V76.918z" fill="#fff"/><path id="Vector_55" d="M120.815 112.992v-2.058H90.483c-.285.984-1.184.963-2.26.963h-6.854c-1.076 0-1.976.021-2.26-.963H48.776v2.058s2.49 1.859 4.32 1.859h63.399c1.829 0 4.32-1.859 4.32-1.859z" fill="#133A4F"/><path id="Vector_56" d="M97.957 72.96h4.695l-4.695-4.697v4.696z" fill="#fff"/><path id="Vector_57" d="M109.702 80.75H59.925v27.077h49.777V80.75z" fill="#C4E0F8"/><path id="Vector_58" d="M109.702 76.882H59.925v4.002h49.777v-4.002z" fill="#EAF4FE"/><path id="Vector_59" d="M62.86 78.698a.801.801 0 0 1-1.6 0 .8.8 0 0 1 1.6 0z" fill="#074FDE"/><path id="Vector_60" d="M65.394 78.698a.8.8 0 1 1-1.601 0 .8.8 0 0 1 1.601 0z" fill="#69ADEA"/><path id="Vector_61" d="M67.929 78.698a.8.8 0 1 1-1.602 0 .8.8 0 0 1 1.602 0z" fill="#ABD3F7"/><path id="Vector_62" d="M106.435 83.488H93.013v8.336h13.422v-8.336z" fill="#99C6F6"/><path id="Vector_63" d="M106.173 83.75v7.812H93.275v-7.811h12.898zm.524-.524H92.75v8.86h13.947v-8.86z" fill="#fff"/><g id="Clip path group"><mask id="mask0_227_645" style="mask-type:luminance" maskUnits="userSpaceOnUse" x="59" y="80" width="51" height="28"><g id="b"><path id="Vector_64" d="M66.924 107.885l-7.039-27.817h42.82l7.039 27.817h-42.82z" fill="#fff"/></g></mask><g mask="url(#mask0_227_645)"><g id="Group"><path id="Vector_65" d="M83.779 94.802c.669 0 1.21-.64 1.21-1.43v-5.85a1.641 1.641 0 0 0-.422-.451c-.772-.515-1.658-.515-2.431 0-.844.58-1.227 2.542-1.14 3.52l.337 4.21h2.445z" fill="#F7B68B"/><path id="Vector_66" d="M76.657 95.788s-1.457 1.27-2.52 8.917c-1.064 7.648-.387 7.358-.387 7.358l.192 1.742 2.708.291 1.547-6.583-1.54-11.724z" fill="#7EB2FF"/><path id="Vector_67" d="M76.577 95.782l4.264-2.007 2.2.686 2.72-.324 2.998 1.355s1.353 1.355.096 5.712c-1.257 4.356-1.07 11.549-1.07 11.549l-10.883.72s.739-15.271-.325-17.691z" fill="#99C6F6"/><path id="Vector_68" d="M86.825 95.686s1.644-.969 3.287 1.161c2.8 3.63 4.157 8.132 4.448 9.003.29.873.675 3.486-.484 4.26l-1.16.775-2.417-1.549.386-.774.194-.485s-1.353-3.098-2.804-5.906c-1.45-2.807-1.45-6.486-1.45-6.486z" fill="#7EB2FF"/><path id="Vector_69" d="M83.579 94.363l1.075 1.224 1.076-1.616-.646-.996-1.505 1.388z" fill="#7EB2FF"/><path id="Vector_70" d="M81.217 93.071l2.069 1.39-.978 1.223-1.615-1.91.524-.703z" fill="#7EB2FF"/><path id="Vector_71" d="M83.465 92.766c.594 0 1.075-.59 1.075-1.32V86.04a1.489 1.489 0 0 0-.375-.416c-.685-.476-1.472-.476-2.158 0-.75.536-1.09 2.348-1.012 3.252l.299 3.89h2.171z" fill="#EC9568"/><path id="Vector_72" d="M82.88 84.56v-1.046h-2.166c-.727 0-1.317.616-1.317 1.375v1.045h2.164c.728 0 1.318-.615 1.318-1.375z" fill="#163F59"/><path id="Vector_73" d="M84.953 90.902c0 .674-.525 1.222-1.172 1.222h-2.66c-.647 0-1.172-.547-1.172-1.222v-5.546c0-.676.525-1.223 1.172-1.223h2.66c.648 0 1.172.547 1.172 1.223v5.546z" fill="#F7B68B"/><path id="Vector_74" d="M82.963 83.514c.461 0 .867.249 1.102.622h.453c.564 0 1.02.477 1.02 1.065v2.631h-.717v-1.07c0-.413-.323-.75-.72-.75h-2.169c-.73 0-1.318-.614-1.318-1.373v-1.125h2.35z" fill="#163F59"/><path id="Vector_75" d="M84.594 88.515c0-.36.28-.65.626-.65h.051c.346 0 .626.29.626.65v.793a.64.64 0 0 1-.626.652h-.051a.626.626 0 0 1-.573-.39" fill="#F7B68B"/></g></g></g><g id="Clip path group_2"><mask id="mask1_227_645" style="mask-type:luminance" maskUnits="userSpaceOnUse" x="93" y="83" width="14" height="9"><g id="c"><path id="Vector_76" d="M106.173 83.75H93.275v7.812h12.898v-7.811z" fill="#fff"/></g></mask><g mask="url(#mask1_227_645)"><g id="Group_2"><path id="Vector_77" d="M102.406 88.237c-.216-.415-1.13-.71-.848-2.423.156-.95-.449-2.046-1.171-2.14-1.251-.161-2.099.404-2.26.687-.461.806-1.375 1.16-1.054 1.742.321.582.66 1.786.252 2.181-.409.395-1.955 3.312.338 3.695 2.18.363 6.295-.754 4.743-3.742z" fill="#212957"/><path id="Vector_78" d="M99.889 88.36s-.285.544.233 2.07c.517 1.527.724 2.355.828 2.38.103.027.646.13.828-.077.181-.207.336-.388.31-.517-.026-.13-.998-3.014-1.19-3.26-.363-.466-.828-.673-1.009-.595z" fill="#DD000B"/><path id="Vector_79" d="M98.621 88.36s.285-.077.104 1.294c-.181 1.372-.414 2.691-.492 2.924-.077.233-.155.465-.595.362-.44-.103-.62-.103-.62-.31 0-.207.232-1.94.517-2.69.284-.751.465-1.838 1.086-1.58z" fill="#DD000B"/><path id="Vector_80" d="M99.092 88.309l.913.052s.988.62 1.019 1.59c.014.461.144.615.03 1.029-.114.413-.407 1.45-.107 2.063.471.964-2.86.39-2.86.39s-.05-1.399-.022-1.813c.029-.413-.399-3.673 1.028-3.311z" fill="#FD2227"/><path id="Vector_81" d="M98.913 87.474s.16.224-.009.472c-.168.247-.556.424-.016.653.686.292 1.172-.27 1.172-.27s-.468-.204-.364-.536c.105-.332.612-.636.14-.531-.474.104-1.002-.027-.923.212z" fill="#F7B68B"/><path id="Vector_82" d="M99.402 88.141a.7.7 0 0 0 .314-.11.309.309 0 0 1-.02-.238c.105-.332.612-.636.14-.532-.474.105-1.002-.027-.923.213 0 0 .16.224-.009.472a.788.788 0 0 1-.04.053c.176.166.258.165.538.142z" fill="#EC9568"/><path id="Vector_83" d="M98.427 85.348s-.217.971.15 1.767c.395.854.612.63 1.018.526.407-.105.653-.665.685-1.265.029-.572.168-.784-.383-.502-.528.269-1.132.378-1.47-.526z" fill="#F7B68B"/></g></g></g><path id="Vector_84" d="M118.627 75.42c0 3.807-3.3 6.894-7.369 6.894s-7.371-3.087-7.371-6.894c0-3.806 3.3-6.894 7.371-6.894 4.07 0 7.369 3.087 7.369 6.894z" fill="#00B04C"/><path id="Vector_85" d="M110.135 78.872l-2.713-2.662 1.233-1.097 1.384 1.36 3.91-4.46 1.315 1.01-5.129 5.85z" fill="#fff"/><path id="Vector_86" d="M150 14.694H94.144V58.5H150V14.694z" fill="#fff"/><path id="Vector_87" d="M150 9.613H94.144v5.258H150V9.613z" fill="#EDFFD4"/><path id="Vector_88" d="M97.999 12a1.052 1.052 0 1 1-2.102 0A1.052 1.052 0 0 1 98 12z" fill="#4FDF07"/><path id="Vector_89" d="M101.328 12a1.052 1.052 0 1 1-2.104 0 1.052 1.052 0 0 1 2.104 0z" fill="#D3F697"/><path id="Vector_90" d="M104.658 12a1.052 1.052 0 1 1-2.102.001 1.052 1.052 0 0 1 2.102-.002z" fill="#ACD4F8"/><path id="Vector_91" d="M141.031 17.5h-33.124v37.552h33.124V17.501z" stroke="#7EB3FF" stroke-width=".126" stroke-miterlimit="10"/><path id="Vector_92" d="M107.907 49.688h33.124" stroke="#7EB3FF" stroke-width=".126" stroke-miterlimit="10"/><path id="Vector_93" d="M107.907 44.324h33.124" stroke="#7EB3FF" stroke-width=".126" stroke-miterlimit="10"/><path id="Vector_94" d="M107.907 38.959h33.124" stroke="#7EB3FF" stroke-width=".126" stroke-miterlimit="10"/><path id="Vector_95" d="M107.907 33.594h33.124" stroke="#7EB3FF" stroke-width=".126" stroke-miterlimit="10"/><path id="Vector_96" d="M107.907 28.23h33.124" stroke="#7EB3FF" stroke-width=".126" stroke-miterlimit="10"/><path id="Vector_97" d="M107.907 22.866h33.124" stroke="#7EB3FF" stroke-width=".126" stroke-miterlimit="10"/><path id="Vector_98" d="M129.991 17.5v37.553" stroke="#7EB3FF" stroke-width=".126" stroke-miterlimit="10"/><path id="Vector_99" d="M118.948 17.5v37.553" stroke="#7EB3FF" stroke-width=".126" stroke-miterlimit="10"/><path id="Vector_100" d="M107.907 17.5l-1.713 1.714" stroke="#7EB3FF" stroke-width=".126" stroke-miterlimit="10"/><path id="Vector_101" d="M107.907 22.866l-1.713 1.712" stroke="#7EB3FF" stroke-width=".126" stroke-miterlimit="10"/><path id="Vector_102" d="M107.907 28.23l-1.713 1.713" stroke="#7EB3FF" stroke-width=".126" stroke-miterlimit="10"/><path id="Vector_103" d="M107.907 33.594l-1.713 1.713" stroke="#7EB3FF" stroke-width=".126" stroke-miterlimit="10"/><path id="Vector_104" d="M107.907 38.959l-1.713 1.713" stroke="#7EB3FF" stroke-width=".126" stroke-miterlimit="10"/><path id="Vector_105" d="M107.907 44.324l-1.713 1.713" stroke="#7EB3FF" stroke-width=".126" stroke-miterlimit="10"/><path id="Vector_106" d="M107.907 49.688l-1.713 1.713" stroke="#7EB3FF" stroke-width=".126" stroke-miterlimit="10"/><path id="Vector_107" d="M104.706 52.402h-.136V51.5l-.273.1v-.123l.388-.145h.021v1.07z" fill="#7EB3FF"/><path id="Vector_108" d="M105.77 51.948c0 .158-.026.276-.081.353-.054.077-.138.116-.254.116-.113 0-.197-.038-.251-.113-.056-.075-.084-.188-.086-.338v-.18c0-.157.027-.273.081-.35.055-.075.139-.114.255-.114.115 0 .199.037.253.11.055.074.082.187.083.34v.176zm-.135-.185a.5.5 0 0 0-.048-.25c-.032-.053-.083-.08-.153-.08-.069 0-.12.027-.151.079a.47.47 0 0 0-.049.24v.217c0 .115.016.2.05.255a.165.165 0 0 0 .151.082c.067 0 .117-.025.149-.077a.476.476 0 0 0 .051-.245v-.22z" fill="#7EB3FF"/><path id="Vector_109" d="M104.959 47.076h-.698v-.098l.369-.409a.936.936 0 0 0 .113-.151.25.25 0 0 0 .031-.12.19.19 0 0 0-.051-.137.176.176 0 0 0-.135-.054.21.21 0 0 0-.157.058.22.22 0 0 0-.056.16h-.135c0-.099.032-.178.095-.238a.351.351 0 0 1 .253-.09c.1 0 .177.025.236.077a.268.268 0 0 1 .086.207c0 .106-.067.23-.201.375l-.285.31h.535v.11z" fill="#7EB3FF"/><path id="Vector_110" d="M105.77 46.622c0 .158-.026.276-.081.353-.054.076-.138.115-.254.115-.113 0-.197-.037-.251-.113-.056-.075-.084-.188-.086-.337v-.181c0-.157.027-.273.081-.35.055-.075.139-.113.255-.113.115 0 .199.036.253.11.055.073.082.186.083.34v.175zm-.135-.185a.5.5 0 0 0-.048-.251c-.032-.053-.083-.079-.153-.079-.069 0-.12.026-.151.078a.47.47 0 0 0-.049.241v.217c0 .115.016.2.05.254a.165.165 0 0 0 .151.083c.067 0 .117-.026.149-.077a.475.475 0 0 0 .051-.245v-.221z" fill="#7EB3FF"/><path id="Vector_111" d="M104.458 41.15h.101a.224.224 0 0 0 .151-.05.17.17 0 0 0 .055-.133c0-.125-.062-.187-.186-.187a.19.19 0 0 0-.14.05.17.17 0 0 0-.053.133h-.135a.27.27 0 0 1 .092-.21.338.338 0 0 1 .236-.084c.1 0 .179.026.236.08a.289.289 0 0 1 .086.22.235.235 0 0 1-.046.136.275.275 0 0 1-.122.097.249.249 0 0 1 .184.25.29.29 0 0 1-.094.227.35.35 0 0 1-.243.084.359.359 0 0 1-.244-.081.268.268 0 0 1-.094-.215h.136c0 .056.018.101.054.135.037.034.086.05.147.05.065 0 .116-.016.15-.05.035-.035.052-.084.052-.148a.18.18 0 0 0-.057-.142.248.248 0 0 0-.165-.051h-.101v-.11z" fill="#7EB3FF"/><path id="Vector_112" d="M105.77 41.294c0 .158-.026.276-.081.354-.054.076-.138.115-.254.115-.113 0-.197-.038-.251-.113-.056-.075-.084-.188-.086-.337v-.181c0-.157.027-.273.081-.35.055-.075.139-.113.255-.113.115 0 .199.036.253.11.055.073.082.186.083.34v.175zm-.135-.185a.498.498 0 0 0-.048-.25c-.032-.053-.083-.08-.153-.08-.069 0-.12.027-.151.08a.47.47 0 0 0-.049.24v.216c0 .116.016.2.05.255a.165.165 0 0 0 .151.083c.067 0 .117-.026.149-.078a.475.475 0 0 0 .051-.244v-.222z" fill="#7EB3FF"/><path id="Vector_113" d="M104.833 36.065h.147v.11h-.147v.248h-.137v-.247h-.484v-.08l.476-.738h.145v.707zm-.468 0h.331v-.522l-.015.03-.316.492z" fill="#7EB3FF"/><path id="Vector_114" d="M105.77 35.969c0 .158-.026.276-.081.353-.054.077-.138.116-.254.116-.113 0-.197-.038-.251-.113-.056-.076-.084-.189-.086-.338v-.18c0-.158.027-.274.081-.35.055-.076.139-.114.255-.114.115 0 .199.037.253.11.055.073.082.187.083.34v.176zm-.135-.185a.5.5 0 0 0-.048-.251c-.032-.052-.083-.079-.153-.079-.069 0-.12.027-.151.079a.47.47 0 0 0-.049.24v.217c0 .115.016.2.05.255a.165.165 0 0 0 .151.082c.067 0 .117-.026.149-.078a.475.475 0 0 0 .051-.244v-.221z" fill="#7EB3FF"/><path id="Vector_115" d="M104.323 30.562l.055-.53h.545v.124h-.431l-.032.29a.343.343 0 0 1 .178-.045c.097 0 .174.032.231.096.057.064.086.15.086.26 0 .11-.03.196-.089.26a.326.326 0 0 1-.249.094.336.336 0 0 1-.23-.078.314.314 0 0 1-.102-.217h.128c.008.062.03.107.065.138a.203.203 0 0 0 .139.047.18.18 0 0 0 .148-.065.267.267 0 0 0 .054-.177.245.245 0 0 0-.058-.172.198.198 0 0 0-.154-.065.221.221 0 0 0-.139.039l-.036.03-.108-.029h-.001z" fill="#7EB3FF"/><path id="Vector_116" d="M105.77 30.642c0 .159-.026.276-.081.354-.054.076-.138.115-.254.115-.113 0-.197-.037-.251-.113-.056-.075-.084-.188-.086-.337v-.181c0-.157.027-.273.081-.35.055-.075.139-.113.255-.113.115 0 .199.036.253.11.055.073.082.187.083.34v.175zm-.135-.185a.5.5 0 0 0-.048-.25c-.032-.053-.083-.08-.153-.08-.069 0-.12.027-.151.08a.47.47 0 0 0-.049.24v.216c0 .116.016.2.05.255a.165.165 0 0 0 .151.082c.067 0 .117-.025.149-.077a.476.476 0 0 0 .051-.244v-.222z" fill="#7EB3FF"/><path id="Vector_117" d="M104.792 24.704v.115h-.025a.353.353 0 0 0-.251.093.388.388 0 0 0-.109.256.289.289 0 0 1 .23-.097c.093 0 .167.032.222.098a.38.38 0 0 1 .083.253c0 .11-.03.197-.089.263a.31.31 0 0 1-.241.099.306.306 0 0 1-.248-.118.467.467 0 0 1-.094-.302v-.052c0-.196.041-.346.125-.45.083-.103.208-.156.373-.159h.025-.001zm-.178.48a.216.216 0 0 0-.128.041.214.214 0 0 0-.081.105v.05c0 .088.02.158.06.212.039.053.089.08.147.08a.173.173 0 0 0 .144-.067.278.278 0 0 0 .052-.176.283.283 0 0 0-.053-.178.169.169 0 0 0-.141-.068z" fill="#7EB3FF"/><path id="Vector_118" d="M105.77 25.316c0 .158-.026.276-.081.353-.054.076-.138.115-.254.115-.113 0-.197-.037-.251-.113-.056-.075-.084-.188-.086-.337v-.181c0-.157.027-.273.081-.35.055-.075.139-.113.255-.113.115 0 .199.036.253.11.055.073.082.186.083.34v.175zm-.135-.186a.5.5 0 0 0-.048-.25c-.032-.053-.083-.08-.153-.08-.069 0-.12.027-.151.08a.47.47 0 0 0-.049.24v.216c0 .115.016.2.05.255a.165.165 0 0 0 .151.083c.067 0 .117-.026.149-.078a.475.475 0 0 0 .051-.244v-.222z" fill="#7EB3FF"/><path id="Vector_119" d="M104.949 19.454l-.441.989h-.143l.44-.954h-.576v-.11h.72v.075z" fill="#7EB3FF"/><path id="Vector_120" d="M105.77 19.989c0 .158-.026.276-.081.354-.054.076-.138.115-.254.115-.113 0-.197-.038-.251-.113-.056-.075-.084-.188-.086-.338v-.18c0-.157.027-.273.081-.35.055-.076.139-.114.255-.114.115 0 .199.037.253.11.055.074.082.187.083.34v.176zm-.135-.185a.5.5 0 0 0-.048-.25c-.032-.053-.083-.08-.153-.08-.069 0-.12.027-.151.079a.47.47 0 0 0-.049.24v.217c0 .115.016.2.05.255a.165.165 0 0 0 .151.082c.067 0 .117-.026.149-.077a.476.476 0 0 0 .051-.245v-.22z" fill="#7EB3FF"/><path id="Vector_121" d="M111.822 57.035h-.698v-.097l.368-.41a.884.884 0 0 0 .114-.151.248.248 0 0 0 .03-.12.19.19 0 0 0-.05-.137.174.174 0 0 0-.134-.054.211.211 0 0 0-.158.057.221.221 0 0 0-.056.16h-.135c0-.098.032-.177.095-.237a.352.352 0 0 1 .254-.091c.099 0 .177.026.235.078a.268.268 0 0 1 .086.207c0 .106-.067.23-.201.375l-.285.31h.535v.11z" fill="#7EB3FF"/><path id="Vector_122" d="M112.633 56.58c0 .159-.026.277-.081.354-.054.076-.138.115-.254.115-.113 0-.197-.037-.252-.113-.055-.075-.083-.188-.085-.337v-.181c0-.157.027-.273.081-.35.054-.075.139-.113.255-.113.114 0 .199.036.253.11.054.073.082.187.083.34v.175zm-.135-.184a.488.488 0 0 0-.049-.251c-.031-.053-.082-.079-.152-.079-.069 0-.12.026-.152.078a.483.483 0 0 0-.048.241v.217c0 .115.016.2.05.254a.165.165 0 0 0 .151.083.166.166 0 0 0 .15-.078.496.496 0 0 0 .051-.244v-.222h-.001z" fill="#7EB3FF"/><path id="Vector_123" d="M113.504 57.035h-.698v-.097l.368-.41a.884.884 0 0 0 .114-.151.25.25 0 0 0 .031-.12.19.19 0 0 0-.051-.137.178.178 0 0 0-.135-.054.21.21 0 0 0-.157.057.221.221 0 0 0-.056.16h-.135c0-.098.032-.177.095-.237a.35.35 0 0 1 .253-.091c.099 0 .177.026.236.078a.268.268 0 0 1 .086.207c0 .106-.067.23-.201.375l-.285.31h.534v.11h.001z" fill="#7EB3FF"/><path id="Vector_124" d="M114.315 56.58c0 .159-.026.277-.081.354-.054.076-.138.115-.254.115-.113 0-.197-.037-.252-.113-.055-.075-.083-.188-.085-.337v-.181c0-.157.027-.273.081-.35.055-.075.139-.113.255-.113.115 0 .199.036.253.11.055.073.082.187.084.34v.175h-.001zm-.135-.184a.5.5 0 0 0-.048-.251c-.032-.053-.083-.079-.153-.079-.069 0-.12.026-.152.078a.483.483 0 0 0-.048.241v.217c0 .115.016.2.05.254a.165.165 0 0 0 .151.083c.067 0 .117-.026.149-.078a.475.475 0 0 0 .051-.244v-.221z" fill="#7EB3FF"/><path id="Vector_125" d="M123.086 57.035h-.698v-.097l.368-.41a.884.884 0 0 0 .114-.151.26.26 0 0 0 .03-.12.19.19 0 0 0-.05-.137.176.176 0 0 0-.135-.054.21.21 0 0 0-.157.057.221.221 0 0 0-.056.16h-.135c0-.098.032-.177.095-.237a.35.35 0 0 1 .253-.091c.099 0 .177.026.235.078a.264.264 0 0 1 .086.207c0 .106-.066.23-.2.375l-.285.31h.535v.11z" fill="#7EB3FF"/><path id="Vector_126" d="M123.897 56.58c0 .159-.027.277-.081.354-.054.076-.138.115-.254.115-.113 0-.197-.037-.252-.113-.055-.075-.083-.188-.085-.337v-.181c0-.157.027-.273.081-.35.054-.075.139-.113.254-.113.115 0 .2.036.254.11.054.073.081.187.083.34v.175zm-.135-.184a.488.488 0 0 0-.049-.251c-.031-.053-.082-.079-.152-.079-.069 0-.12.026-.152.078a.493.493 0 0 0-.049.241v.217c0 .115.017.2.051.254a.165.165 0 0 0 .151.083c.067 0 .117-.026.149-.078a.475.475 0 0 0 .051-.244v-.222z" fill="#7EB3FF"/><path id="Vector_127" d="M124.768 57.035h-.698v-.097l.368-.41a.884.884 0 0 0 .114-.151.248.248 0 0 0 .03-.12.19.19 0 0 0-.05-.137.178.178 0 0 0-.135-.054.21.21 0 0 0-.157.057.221.221 0 0 0-.056.16h-.135c0-.098.032-.177.095-.237a.35.35 0 0 1 .253-.091c.099 0 .177.026.235.078a.265.265 0 0 1 .087.207c0 .106-.067.23-.201.375l-.285.31h.534v.11h.001z" fill="#7EB3FF"/><path id="Vector_128" d="M125.356 57.035h-.135v-.902l-.274.1v-.123l.388-.145h.021v1.07z" fill="#7EB3FF"/><path id="Vector_129" d="M134.349 57.035h-.698v-.097l.369-.41a.867.867 0 0 0 .113-.151.25.25 0 0 0 .031-.12.19.19 0 0 0-.05-.137.178.178 0 0 0-.135-.054.21.21 0 0 0-.157.057.221.221 0 0 0-.056.16h-.135c0-.098.032-.177.095-.237a.35.35 0 0 1 .253-.091c.099 0 .177.026.235.078a.265.265 0 0 1 .087.207c0 .106-.067.23-.201.375l-.285.31h.535v.11h-.001z" fill="#7EB3FF"/><path id="Vector_130" d="M135.161 56.58c0 .159-.027.277-.081.354-.054.076-.139.115-.254.115-.114 0-.198-.037-.252-.113-.055-.075-.083-.188-.086-.337v-.181c0-.157.028-.273.082-.35.054-.075.139-.113.254-.113.115 0 .199.036.253.11.055.073.082.187.083.34v.175h.001zm-.135-.184a.499.499 0 0 0-.049-.251c-.032-.053-.083-.079-.153-.079-.069 0-.119.026-.151.078a.482.482 0 0 0-.049.241v.217c0 .115.017.2.051.254a.165.165 0 0 0 .151.083c.067 0 .117-.026.149-.078a.475.475 0 0 0 .051-.244v-.222z" fill="#7EB3FF"/><path id="Vector_131" d="M136.031 57.035h-.698v-.097l.369-.41a.818.818 0 0 0 .113-.151.25.25 0 0 0 .031-.12.19.19 0 0 0-.05-.137.178.178 0 0 0-.135-.054c-.068 0-.12.02-.157.057a.218.218 0 0 0-.056.16h-.135c0-.098.032-.177.095-.237a.35.35 0 0 1 .253-.091c.099 0 .177.026.235.078a.264.264 0 0 1 .086.207c0 .106-.066.23-.2.375l-.285.31h.534v.11z" fill="#7EB3FF"/><path id="Vector_132" d="M136.873 57.035h-.698v-.097l.369-.41a.923.923 0 0 0 .113-.151.25.25 0 0 0 .031-.12.19.19 0 0 0-.051-.137.178.178 0 0 0-.135-.054.21.21 0 0 0-.157.057.221.221 0 0 0-.056.16h-.135c0-.098.032-.177.095-.237a.35.35 0 0 1 .253-.091c.1 0 .177.026.236.078a.268.268 0 0 1 .086.207c0 .106-.067.23-.201.375l-.285.31h.535v.11z" fill="#7EB3FF"/><path id="Vector_133" opacity=".34" d="M141.031 22.866h-33.124v5.364h33.124v-5.364z" fill="#fff"/><path id="Vector_134" opacity=".34" d="M141.031 33.594h-33.124v5.365h33.124v-5.365z" fill="#fff"/><path id="Vector_135" opacity=".34" d="M141.031 44.324h-33.124v5.364h33.124v-5.364z" fill="#fff"/><path id="Vector_136" d="M122.793 22.866h-14.886v.856h14.886v-.856z" fill="#D1F498"/><path id="Vector_137" d="M133.477 25.12h-25.57v.856h25.57v-.857z" fill="#BEF264"/><path id="Vector_138" d="M117.021 27.373h-9.114v.857h9.114v-.857z" fill="#EAF4FE"/><path id="Vector_139" d="M134.777 33.594h-26.87v.857h26.87v-.857z" fill="#D1F498"/><path id="Vector_140" d="M118.949 35.849h-11.042v.856h11.042v-.856z" fill="#BEF264"/><path id="Vector_141" d="M129.991 38.103h-22.084v.856h22.084v-.856z" fill="#EAF4FE"/><path id="Vector_142" d="M118.949 44.393h-11.042v.857h11.042v-.857z" fill="#D1F498"/><path id="Vector_143" d="M129.991 46.647h-22.084v.857h22.084v-.857z" fill="#BEF264"/><path id="Vector_144" d="M126.134 48.901h-18.227v.856h18.227v-.856z" fill="#EAF4FE"/><g id="Group_3"><path id="Vector_146" d="M121.179 3.635l.195-.08-.195.08z" fill="#94999B"/><g id="Group_4"><g id="Clip path group_3"><mask id="mask2_227_645" style="mask-type:luminance" maskUnits="userSpaceOnUse" x="109" y="10" width="3" height="3"><g id="d"><path id="Vector_147" d="M111.7 12.55c-.059.112-.116.224-.173.336l-2.504-2.191c.057-.112.114-.224.173-.335l2.504 2.19z" fill="#fff"/></g></mask><g mask="url(#mask2_227_645)"><g id="Group_5"><g id="Group_6"><path id="Vector_148" d="M109.196 10.36l2.504 2.191a24.79 24.79 0 0 0-.173.335l-2.504-2.19c.057-.113.114-.224.173-.336z" fill="#A9B0B2"/></g></g></g></g></g><g id="Group_7"><g id="Clip path group_4"><mask id="mask3_227_645" style="mask-type:luminance" maskUnits="userSpaceOnUse" x="108" y="12" width="3" height="3"><g id="e"><path id="Vector_149" d="M108.403 12.093l2.503 2.191c-.062.164-.123.327-.183.492l-2.504-2.19c.059-.165.121-.33.184-.492z" fill="#fff"/></g></mask><g mask="url(#mask3_227_645)"><g id="Group_8"><g id="Group_9"><path id="Vector_150" d="M108.403 12.093l2.503 2.191c-.062.164-.123.327-.183.492l-2.504-2.19c.059-.165.121-.33.184-.492" fill="#A9B0B2"/></g></g></g></g></g><path id="Vector_151" d="M108.403 12.093c-.064.165-.124.33-.184.492.059-.164.121-.328.184-.492z" fill="#94999B"/><g id="Group_10"><g id="Clip path group_5"><mask id="mask4_227_645" style="mask-type:luminance" maskUnits="userSpaceOnUse" x="107" y="13" width="4" height="3"><g id="f"><path id="Vector_152" d="M107.907 13.555l2.504 2.19-.01.033-2.503-2.191.009-.032z" fill="#fff"/></g></mask><g mask="url(#mask4_227_645)"><g id="Group_11"><g id="Group_12"><path id="Vector_153" d="M107.907 13.555l2.504 2.19-.01.033-2.503-2.191.009-.032z" fill="#ADB4B6"/></g></g></g></g></g><g id="Group_13"><g id="Clip path group_6"><mask id="mask5_227_645" style="mask-type:luminance" maskUnits="userSpaceOnUse" x="118" y="1" width="4" height="3"><g id="g"><path id="Vector_154" d="M121.374 3.556c-.065.025-.13.052-.195.08l-2.505-2.192.196-.08 2.504 2.192z" fill="#fff"/></g></mask><g mask="url(#mask5_227_645)"><g id="Group_14"><g id="Group_15"><path id="Vector_155" d="M118.87 1.365l2.504 2.19-.195.08-2.505-2.191.196-.08z" fill="#979D9F"/></g></g></g></g></g><g id="Group_16"><g id="Clip path group_7"><mask id="mask6_227_645" style="mask-type:luminance" maskUnits="userSpaceOnUse" x="119" y="0" width="4" height="4"><g id="h"><path id="Vector_156" d="M122.792 3.074c-.105.03-.211.061-.315.093l-2.505-2.19c.106-.033.21-.064.316-.093l2.505 2.19h-.001z" fill="#fff"/></g></mask><g mask="url(#mask6_227_645)"><g id="Group_17"><g id="Group_18"><path id="Vector_157" d="M120.288.883l2.504 2.19c-.105.03-.211.061-.315.094L119.972.976c.106-.033.21-.064.316-.093" fill="#393CA6"/></g></g></g></g></g><g id="Group_19"><g id="Clip path group_8"><mask id="mask7_227_645" style="mask-type:luminance" maskUnits="userSpaceOnUse" x="107" y="17" width="3" height="3"><g id="i"><path id="Vector_159" d="M109.879 19.738c.002.066.003.131.006.196l-2.504-2.191-.006-.196 2.504 2.191z" fill="#fff"/></g></mask><g mask="url(#mask7_227_645)"><g id="Group_20"><g id="Group_21"><path id="Vector_160" d="M107.375 17.547l2.504 2.192.006.195-2.504-2.19-.006-.197" fill="#C8A756"/></g></g></g></g></g><g id="Group_22"><g id="Clip path group_9"><mask id="mask8_227_645" style="mask-type:luminance" maskUnits="userSpaceOnUse" x="107" y="17" width="3" height="4"><g id="j"><path id="Vector_162" d="M107.394 17.953l2.504 2.192-.602-.52-1.899-1.636-.003-.036z" fill="#fff"/></g></mask><g mask="url(#mask8_227_645)"><g id="Group_23"><g id="Group_24"><path id="Vector_163" d="M107.394 17.953l2.504 2.192c.057.77.201 1.496.424 2.167l-2.504-2.192a8.959 8.959 0 0 1-.424-2.167z" fill="#C8A756"/></g></g></g></g></g><path id="Vector_164" d="M120.288.883l2.504 2.191-.407 3.629-2.504-2.191.407-3.629z" fill="#C5C7A0"/><g id="Group_25"><g id="Clip path group_10"><mask id="mask9_227_645" style="mask-type:luminance" maskUnits="userSpaceOnUse" x="123" y="0" width="4" height="3"><g id="k"><path id="Vector_165" d="M124.348.514l2.504 2.191a8.4 8.4 0 0 0-.561-.048L123.788.465c.189.01.377.028.56.05z" fill="#fff"/></g></mask><g mask="url(#mask9_227_645)"><g id="Group_26"><g id="Group_27"><path id="Vector_166" d="M124.348.514l2.504 2.191a8.4 8.4 0 0 0-.561-.048L123.788.465c.189.01.377.028.56.05z" fill="#734FB8"/></g></g></g></g></g><g id="Group_28"><g id="Clip path group_11"><mask id="mask10_227_645" style="mask-type:luminance" maskUnits="userSpaceOnUse" x="119" y="4" width="6" height="3"><g id="l"><path id="Vector_167" d="M122.299 4.222l2.504 2.192c-.787-.045-1.601.062-2.418.289l-2.504-2.191c.817-.228 1.631-.334 2.418-.29z" fill="#fff"/></g></mask><g mask="url(#mask10_227_645)"><g id="Group_29"><path id="Vector_168" d="M122.299 4.222l2.504 2.192c-.787-.045-1.601.062-2.418.289l-2.504-2.191c.817-.228 1.631-.334 2.418-.29" fill="#EDB506"/></g></g></g></g><path id="Vector_169" d="M119.972.976l.317-.095c1.273-.354 2.331-.48 3.496-.417l-1.486 3.758c-.787-.044-1.601.062-2.418.29l.407-3.629c-.106.03-.21.06-.316.093z" fill="#FFC700"/><path id="Vector_170" d="M123.785.464l2.504 2.192-1.486 3.758-2.504-2.192 1.486-3.758z" fill="#3FB94A"/><g id="Group_30"><g id="Clip path group_12"><mask id="mask11_227_645" style="mask-type:luminance" maskUnits="userSpaceOnUse" x="122" y="4" width="6" height="4"><g id="m"><path id="Vector_171" d="M125.309 5.374l2.503 2.191c-.768-.672-1.783-1.084-3.008-1.151l-2.503-2.192c1.225.067 2.239.48 3.008 1.152z" fill="#fff"/></g></mask><g mask="url(#mask11_227_645)"><g id="Group_31"><path id="Vector_172" d="M125.309 5.374l2.503 2.191c-.768-.672-1.783-1.084-3.008-1.151l-2.503-2.192c1.225.067 2.239.48 3.008 1.152" fill="#96A2BD"/></g></g></g></g><path id="Vector_173" d="M115.443 12.023a13.832 13.832 0 0 1 .435-.616c.063-.084.129-.165.194-.248a14.371 14.371 0 0 1 .478-.58c.102-.117.206-.232.312-.345l.182-.195c.129-.133.26-.261.392-.388.045-.043.089-.088.134-.13a13.782 13.782 0 0 1 .984-.835c.038-.03.077-.058.116-.087.121-.092.244-.181.367-.267.039-.027.077-.055.116-.081.156-.107.313-.21.472-.309l.058-.035a11.98 11.98 0 0 1 1.005-.553l.098-.045c.145-.07.292-.136.439-.197l.069-.03a9.4 9.4 0 0 1 .596-.223 8.59 8.59 0 0 1 .496-.156l-2.504-2.19a8.07 8.07 0 0 0-.496.155 10.447 10.447 0 0 0-.667.254c-.146.06-.291.126-.436.195l-.098.046c-.159.078-.317.16-.474.245l-.098.055c-.143.08-.285.163-.427.25l-.067.04-.029.017c-.148.093-.293.19-.439.29-.04.026-.079.055-.118.083-.123.086-.245.174-.365.265-.039.03-.078.057-.117.088-.14.108-.28.219-.418.334l-.02.017a14.58 14.58 0 0 0-.545.483c-.046.043-.09.088-.135.131-.133.127-.264.255-.391.387l-.067.066-.116.129a13.575 13.575 0 0 0-.789.924c-.038.047-.077.092-.113.14a5.37 5.37 0 0 0-.082.11l-.082.11c-.117.161-.233.323-.342.488l-.006.009c-.109.163-.212.329-.314.496-.023.038-.046.075-.067.113a11.191 11.191 0 0 0-.301.53 12.245 12.245 0 0 0-.813 1.89l-.004.01a12.403 12.403 0 0 0-.188.634 10.471 10.471 0 0 0-.129.546 9.7 9.7 0 0 0-.085.483l-.017.112a8.404 8.404 0 0 0-.059.557 7.751 7.751 0 0 0-.02.427c0 .033-.002.067-.001.099a1.521 1.521 0 0 0-.002.067c0 .065.006.128.008.194.002.095.004.191.011.286.005.08.014.159.023.238.009.092.019.183.031.273.011.079.026.155.04.231.016.087.032.175.051.26.018.076.038.15.057.223.022.082.044.164.07.244.008.026.014.053.023.078.029.09.062.178.096.265l.01.026a4.74 4.74 0 0 0 .212.46 4.2 4.2 0 0 0 .17.302l.03.052.013.021c.065.103.135.2.207.296l.051.067a4.437 4.437 0 0 0 .282.327l.14.143.149.136 2.504 2.19a4.845 4.845 0 0 1-.294-.283l-.028-.029a4.765 4.765 0 0 1-.249-.294c-.018-.021-.034-.043-.051-.066a4.669 4.669 0 0 1-.219-.316l-.034-.057a5.097 5.097 0 0 1-.167-.295l-.048-.094a4.987 4.987 0 0 1-.165-.369c-.004-.01-.006-.02-.01-.028a7.09 7.09 0 0 1-.119-.34 6.178 6.178 0 0 1-.07-.247 5.235 5.235 0 0 1-.108-.483c-.013-.076-.028-.15-.039-.228-.013-.09-.022-.183-.032-.276-.008-.079-.017-.157-.023-.236-.006-.094-.008-.19-.011-.285-.003-.087-.007-.175-.006-.264 0-.031.002-.064.001-.095a9.09 9.09 0 0 1 .021-.43l.004-.068a8.476 8.476 0 0 1 .072-.6c.023-.16.051-.32.085-.483l.005-.03c.036-.17.079-.343.125-.517.009-.039.021-.077.031-.116a10.218 10.218 0 0 1 .381-1.137 12.433 12.433 0 0 1 .89-1.807l.073-.12c.099-.163.201-.325.307-.484h-.002z" fill="#EDB506"/><g id="Group_32"><g id="Clip path group_13"><mask id="mask12_227_645" style="mask-type:luminance" maskUnits="userSpaceOnUse" x="107" y="17" width="6" height="9"><g id="n"><path id="Vector_174" d="M109.898 20.145c.161 2.161.995 3.975 2.391 5.197l-2.504-2.191c-1.388-1.216-2.221-3.017-2.389-5.162a239.977 239.977 0 0 1 1.25 1.078l.165.141.641.552.153.132c.088.076.241.149.292.252h.001z" fill="#fff"/></g></mask><g mask="url(#mask12_227_645)"><g id="Group_33"><g id="Group_34"><path id="Vector_175" d="M107.394 17.953l2.504 2.192c.057.77.201 1.496.424 2.167l-2.504-2.192a8.959 8.959 0 0 1-.424-2.167z" fill="#C8A756"/><path id="Vector_176" d="M107.818 20.12l2.504 2.192a7.32 7.32 0 0 0 .771 1.633l-2.504-2.19a7.342 7.342 0 0 1-.771-1.634z" fill="#C5A555"/><path id="Vector_177" d="M108.588 21.754l2.504 2.191c.282.441.61.843.983 1.2l-2.504-2.191a6.51 6.51 0 0 1-.983-1.2z" fill="#C2A354"/><path id="Vector_178" d="M109.571 22.954l2.504 2.191c.07.067.141.133.214.197l-2.504-2.191a6.54 6.54 0 0 1-.214-.197" fill="#BFA153"/></g></g></g></g></g><path id="Vector_179" d="M109.315 10.13c2.092-3.932 5.529-7.124 9.359-8.686l.196-.08a12.81 12.81 0 0 1 .595-.22c.169-.058.338-.115.507-.168.106-.033.21-.064.316-.093l-.407 3.629c-2.968.827-5.945 3.305-7.619 6.452-.221.415-.42.843-.593 1.28-1.84 4.653-.062 8.602 3.97 8.823 1.605.089 3.322-.435 4.925-1.38l.715 3.15c-2.321 1.367-4.806 2.115-7.125 1.987a8.308 8.308 0 0 1-.75-.078c-.063-.007-.125-.017-.187-.027a9.095 9.095 0 0 1-.539-.106 7.193 7.193 0 0 1-.551-.151c-2.803-.9-4.496-3.328-4.733-6.509a4.952 4.952 0 0 1-.013-.21l-.006-.197c-.039-1.094.089-2.27.397-3.498.044-.17.085-.316.125-.461l.061-.214c.026-.087.057-.176.084-.264.04-.126.081-.253.125-.382.017-.047.036-.094.052-.142.059-.163.12-.327.183-.492.145-.362.27-.651.402-.94l.056-.12c.052-.114.107-.226.163-.338.057-.112.114-.224.173-.335l.119-.23z" fill="#FFC700"/><path id="Vector_180" d="M130.34 5.955l2.503 2.19-3.513 2.07-2.505-2.191 3.515-2.07z" fill="#2DBC42"/><g id="Group_35"><g id="Clip path group_14"><mask id="mask13_227_645" style="mask-type:luminance" maskUnits="userSpaceOnUse" x="130" y="5" width="3" height="4"><g id="o"><path id="Vector_181" d="M132.683 7.535c.061.199.116.403.163.611l-2.503-2.19a8.892 8.892 0 0 0-.164-.612c.751.657 1.96 1.353 2.504 2.191z" fill="#fff"/></g></mask><g mask="url(#mask13_227_645)"><g id="Group_36"><g id="Group_37"><path id="Vector_182" d="M130.179 5.344l2.504 2.191c.257.834.393 1.75.398 2.726l-2.504-2.191a9.409 9.409 0 0 0-.398-2.726z" fill="#613DCD"/></g></g></g></g></g><g id="Group_38"><g id="Clip path group_15"><mask id="mask14_227_645" style="mask-type:luminance" maskUnits="userSpaceOnUse" x="130" y="5" width="3" height="4"><g id="p"><path id="Vector_183" d="M132.683 7.535c.061.199.116.403.163.611l-2.503-2.19a8.892 8.892 0 0 0-.164-.612c.751.657 1.96 1.353 2.504 2.191z" fill="#fff"/></g></mask><g mask="url(#mask14_227_645)"><g id="Group_39"><g id="Group_40"><path id="Vector_184" d="M130.179 5.344l2.504 2.191c.257.834.393 1.75.398 2.726l-2.504-2.191a9.409 9.409 0 0 0-.398-2.726z" fill="#C9C4BB"/></g></g></g></g></g><g id="Group_41"><path id="Vector_185" d="M128.186 2.102l2.504 2.19c.917.804 1.591 1.891 1.993 3.243.06.198.114.402.16.61l-2.502-2.19a9.267 9.267 0 0 0-.162-.611c-.402-1.352-1.076-2.44-1.993-3.242z" fill="#96A2BD"/><g id="Clip path group_16"><mask id="mask15_227_645" style="mask-type:luminance" maskUnits="userSpaceOnUse" x="128" y="2" width="5" height="7"><g id="q"><path id="Vector_186" d="M128.186 2.102l2.504 2.19c.917.804 1.591 1.891 1.993 3.243.06.198.114.402.16.61l-2.502-2.19a9.267 9.267 0 0 0-.162-.611c-.402-1.352-1.076-2.44-1.993-3.242z" fill="#fff"/></g></mask><g mask="url(#mask15_227_645)"><g id="Group_42"><g id="Group_43"><path id="Vector_187" d="M128.186 2.102l2.504 2.191c.069.06.136.122.202.185l-2.504-2.192a9.774 9.774 0 0 0-.202-.184" fill="#1F70BE"/><path id="Vector_188" d="M128.388 2.286l2.503 2.192c.35.336.662.716.932 1.14l-2.504-2.191a6.255 6.255 0 0 0-.931-1.14z" fill="#96A2BD"/><path id="Vector_189" d="M129.319 3.427l2.504 2.191c.315.496.577 1.05.78 1.662l-2.504-2.191a7.426 7.426 0 0 0-.78-1.662z" fill="#96A2BD"/><path id="Vector_190" d="M130.099 5.089l2.504 2.191.08.255c.06.198.114.402.16.61l-2.502-2.19a9.266 9.266 0 0 0-.242-.866z" fill="#96A2BD"/></g></g></g></g></g><path id="Vector_191" d="M129.526 13.225l2.503 2.191-3.254-.18-2.504-2.192 3.255.181z" fill="#BB8F37"/><g id="Group_44"><g id="Clip path group_17"><mask id="mask16_227_645" style="mask-type:luminance" maskUnits="userSpaceOnUse" x="129" y="5" width="5" height="12"><g id="r"><path id="Vector_192" d="M132.032 15.415a17.3 17.3 0 0 1-.289.684l-2.504-2.191c.101-.225.198-.454.289-.684 1.059-2.676 1.288-5.19.815-7.269l2.504 2.191c.473 2.079.244 4.593-.815 7.269z" fill="#fff"/></g></mask><g mask="url(#mask16_227_645)"><g id="Group_45"><g id="Group_46"><path id="Vector_193" d="M130.179 5.344l2.504 2.191c.257.834.393 1.75.398 2.726l-2.504-2.191a9.409 9.409 0 0 0-.398-2.726z" fill="#C9C9C9"/><path id="Vector_194" d="M130.577 8.07l2.504 2.19c.007 1.33-.229 2.773-.73 4.277l-2.504-2.19c.502-1.505.736-2.948.73-4.277z" fill="#CCC"/><path id="Vector_195" d="M129.847 12.346l2.504 2.191c-.097.29-.203.583-.319.878a17.3 17.3 0 0 1-.289.684l-2.504-2.191a15.817 15.817 0 0 0 .608-1.562z" fill="#C9C9C9"/></g></g></g></g></g><path id="Vector_196" d="M132.032 15.415a17.3 17.3 0 0 1-.289.684l-2.504-2.191c.101-.225.198-.454.289-.684 1.059-2.676 1.288-5.19.815-7.269l2.504 2.191c.473 2.079.244 4.593-.815 7.269z" fill="#35A3BF"/><g id="Clip path group_18"><mask id="mask17_227_645" style="mask-type:luminance" maskUnits="userSpaceOnUse" x="129" y="5" width="5" height="12"><g id="s"><path id="Vector_197" d="M132.032 15.415a17.3 17.3 0 0 1-.289.684l-2.504-2.191c.101-.225.198-.454.289-.684 1.059-2.676 1.288-5.19.815-7.269l2.504 2.191c.473 2.079.244 4.593-.815 7.269z" fill="#fff"/></g></mask><g mask="url(#mask17_227_645)"><g id="Group_47"><g id="Group_48" fill="#35A3BF"><path id="Vector_198" d="M130.179 5.344l2.504 2.191c.257.834.393 1.75.398 2.726l-2.504-2.191a9.409 9.409 0 0 0-.398-2.726z"/><path id="Vector_199" d="M130.577 8.07l2.504 2.19c.007 1.33-.229 2.773-.73 4.277l-2.504-2.19c.502-1.505.736-2.948.73-4.277z"/><path id="Vector_200" d="M129.847 12.346l2.504 2.191c-.097.29-.203.583-.319.878a17.3 17.3 0 0 1-.289.684l-2.504-2.191a15.817 15.817 0 0 0 .608-1.562z"/></g></g></g></g><path id="Vector_201" d="M126.825 8.024l3.515-2.07a9.266 9.266 0 0 0-.161-.61c.675 2.187.514 4.936-.651 7.88-.091.23-.188.46-.289.684l.013-.029c.095-.216.186-.433.274-.654l-3.255-.18c.731-1.85.881-3.583.554-5.021z" fill="#00B1E1"/><path id="Vector_202" d="M123.785.464c.194.011.379.03.563.05 2.97.337 4.99 2.007 5.831 4.83.059.198.113.402.161.61l-3.515 2.07c-.495-2.179-2.096-3.67-4.524-3.801l1.484-3.759z" fill="#B0BFDE"/><path id="Vector_204" d="M120.565 19.687l2.504 2.192.714 3.15-2.504-2.191-.714-3.15z" fill="#92A4B7"/><path id="Vector_205" d="M114.154 24.825a8.308 8.308 0 0 1-.75-.079c-.063-.007-.125-.017-.187-.026a9.094 9.094 0 0 1-.539-.107 7.193 7.193 0 0 1-.551-.151l-.003-.003a6.562 6.562 0 0 1-2.337-1.308l.425.373-.152-.112c-.029-.022-.058-.042-.086-.065a4.4 4.4 0 0 1-.232-.192l-.022-.018.001.001h-.001l2.504 2.19a7.237 7.237 0 0 0 .253.21c.034.026.069.05.102.076l.164.121.118.079.16.106c.042.026.085.05.128.075.053.032.106.064.161.095.045.025.091.048.136.071.055.029.109.058.165.086l.142.066.17.077.149.06c.058.023.115.047.174.068.052.02.103.037.157.055l.125.044.054.018.05.017c.089.028.179.054.27.079.093.025.187.048.281.072a9.551 9.551 0 0 0 .727.134c.245.035.494.064.75.078 2.318.127 4.804-.62 7.125-1.987l-2.504-2.191c-2.322 1.366-4.806 2.114-7.125 1.986l-.002.002z" fill="#EDB506"/><g id="Group_49"><g id="Clip path group_19"><mask id="mask18_227_645" style="mask-type:luminance" maskUnits="userSpaceOnUse" x="128" y="14" width="4" height="3"><g id="t"><path id="Vector_206" d="M129.012 14.398l2.504 2.192-.038.079-2.504-2.191.038-.08z" fill="#fff"/></g></mask><g mask="url(#mask18_227_645)"><g id="Group_50"><g id="Group_51"><path id="Vector_207" d="M129.012 14.398l2.504 2.192-.038.079-2.504-2.191.038-.08z" fill="#C8A756"/></g></g></g></g></g><g id="Group_52"><g id="Clip path group_20"><mask id="mask19_227_645" style="mask-type:luminance" maskUnits="userSpaceOnUse" x="128" y="14" width="4" height="3"><g id="u"><path id="Vector_208" d="M129.012 14.398l2.504 2.192-.038.079-2.504-2.191.038-.08z" fill="#fff"/></g></mask><g mask="url(#mask19_227_645)"><g id="Group_53"><g id="Group_54"><path id="Vector_209" d="M129.012 14.398l2.504 2.192-.038.079-2.504-2.191.038-.08z" fill="#BBC5C9"/></g></g></g></g></g><g id="Group_55"><g id="Clip path group_21"><mask id="mask20_227_645" style="mask-type:luminance" maskUnits="userSpaceOnUse" x="121" y="13" width="11" height="13"><g id="v"><path id="Vector_210" d="M131.065 17.36c-.313.62-.801 1.413-1.198 1.984-.418.603-1.009 1.39-1.515 1.923-.527.555-1.232 1.295-1.822 1.781-.302.248-.701.584-1.017.813-.006.003-1.009.703-1.248.863a9.66 9.66 0 0 1-.48.303l-2.504-2.19a19.416 19.416 0 0 0 7.693-8.359l.038-.08c.077-.162.155-.326.226-.49l2.449 2.141a5.81 5.81 0 0 1-.255.523c-.023.04-.3.64-.303.646-.019.042-.042.1-.064.141z" fill="#fff"/></g></mask><g mask="url(#mask20_227_645)"><g id="Group_56"><g id="Group_57"><path id="Vector_211" d="M129.239 13.908l2.504 2.191a13.16 13.16 0 0 1-.227.49l-.038.08a19.668 19.668 0 0 1-.713 1.35l-2.504-2.192a19.994 19.994 0 0 0 .713-1.35l.038-.08c.077-.161.155-.325.227-.49" fill="#5BC1A5"/><path id="Vector_212" d="M128.261 15.827l2.504 2.191a19.22 19.22 0 0 1-1.352 2.025l-2.503-2.19c.491-.646.942-1.322 1.351-2.026" fill="#5BC1A5"/><path id="Vector_213" d="M126.91 17.852l2.503 2.191c-.431.567-.894 1.11-1.387 1.625l-2.504-2.19c.493-.516.955-1.06 1.388-1.626z" fill="#5BC1A5"/><path id="Vector_214" d="M125.522 19.478l2.504 2.19a19.383 19.383 0 0 1-1.602 1.5l-2.504-2.191a19.11 19.11 0 0 0 1.602-1.5z" fill="#5BC1A5"/><path id="Vector_215" d="M123.92 20.977l2.504 2.192a19.613 19.613 0 0 1-1.98 1.453l-.196.124-2.504-2.191.196-.124a19.616 19.616 0 0 0 1.98-1.454" fill="#5BC1A5"/><path id="Vector_216" d="M121.744 22.555l2.504 2.192c-.153.095-.307.189-.463.28l-2.504-2.19c.156-.093.31-.186.462-.282" fill="#36BC9F"/></g></g></g></g></g><g id="Group_58"><g id="Clip path group_22"><mask id="mask21_227_645" style="mask-type:luminance" maskUnits="userSpaceOnUse" x="121" y="22" width="4" height="4"><g id="w"><path id="Vector_217" d="M124.444 24.622a18.51 18.51 0 0 1-.659.405l-2.504-2.19c.221-.131.441-.265.658-.406l2.505 2.191z" fill="#fff"/></g></mask><g mask="url(#mask21_227_645)"><g id="Group_59"><g id="Group_60"><path id="Vector_218" d="M121.939 22.431l2.505 2.191-.199.127-2.504-2.191a6.87 6.87 0 0 0 .198-.127z" fill="#57606B"/><path id="Vector_219" d="M121.741 22.558l2.504 2.19c-.152.096-.306.189-.46.28l-2.504-2.191c.154-.091.308-.184.46-.28z" fill="#545D69"/></g></g></g></g></g><path id="Vector_220" d="M123.863 24.982l-.078.046-2.504-2.191c.221-.13.441-.265.658-.405.752.657 1.753 1.534 2.505 2.19-.138.089-.314.2-.581.36z" fill="#38BFA1"/><g id="Clip path group_23"><mask id="mask22_227_645" style="mask-type:luminance" maskUnits="userSpaceOnUse" x="121" y="22" width="4" height="4"><g id="x"><path id="Vector_221" d="M123.863 24.982l-.078.046-2.504-2.191c.221-.13.441-.265.658-.405.752.657 1.753 1.534 2.505 2.19-.138.089-.314.2-.581.36z" fill="#fff"/></g></mask><g mask="url(#mask22_227_645)"><g id="Group_61"><g id="Group_62" fill="#38BFA1"><path id="Vector_222" d="M121.939 22.431l2.505 2.191-.199.127-2.504-2.191a6.87 6.87 0 0 0 .198-.127z"/><path id="Vector_223" d="M121.741 22.558l2.504 2.19c-.152.096-.306.189-.46.28l-2.504-2.191c.154-.091.308-.184.46-.28z"/></g></g></g></g><path id="Vector_224" d="M120.565 19.687c2.052-1.207 3.917-3.114 5.114-5.364.221-.415.419-.841.591-1.276l3.257.176c-.089.222-.181.44-.275.656l-.013.029c-.072.164-.15.328-.227.49l-.037.08a19.41 19.41 0 0 1-7.693 8.359l-.717-3.15z" fill="#6FCEB1"/><path id="Vector_225" d="M129.526 13.223l2.504 2.191c-.087.223-.181.44-.275.656l-2.504-2.19c.094-.217.187-.434.275-.657z" fill="#3BCAAB"/><g id="Clip path group_24"><mask id="mask23_227_645" style="mask-type:luminance" maskUnits="userSpaceOnUse" x="129" y="13" width="4" height="4"><g id="y"><path id="Vector_226" d="M129.526 13.223l2.504 2.191c-.087.223-.181.44-.275.656l-2.504-2.19c.094-.217.187-.434.275-.657z" fill="#fff"/></g></mask><g mask="url(#mask23_227_645)"><g id="Group_63"><g id="Group_64"><path id="Vector_227" d="M129.526 13.223l2.504 2.191c-.087.223-.181.44-.275.656l-2.504-2.19c.094-.217.187-.434.275-.657z" fill="#3BCAAB"/></g></g></g></g><path id="Vector_228" d="M129.526 13.225l2.503 2.191a16.38 16.38 0 0 1-.274.654l-2.504-2.19c.096-.217.187-.434.275-.655z" fill="#3BCAAB"/><g id="Clip path group_25"><mask id="mask24_227_645" style="mask-type:luminance" maskUnits="userSpaceOnUse" x="129" y="13" width="4" height="4"><g id="z"><path id="Vector_229" d="M129.526 13.225l2.503 2.191a16.38 16.38 0 0 1-.274.654l-2.504-2.19c.096-.217.187-.434.275-.655z" fill="#fff"/></g></mask><g mask="url(#mask24_227_645)"><g id="Group_65"><g id="Group_66"><path id="Vector_230" d="M129.526 13.225l2.503 2.191a16.38 16.38 0 0 1-.274.654l-2.504-2.19c.096-.217.187-.434.275-.655z" fill="#3BCAAB"/></g></g></g></g><path id="Vector_231" d="M131.065 17.36c.022-.042.045-.1.064-.142.004-.006.279-.604.303-.646a5.58 5.58 0 0 0 .255-.522l.056.049c-.072.165-.15.328-.228.49l-.037.08a19.405 19.405 0 0 1-7.693 8.359c.075-.045.276-.166.48-.304.239-.16 1.242-.86 1.248-.863.316-.229.715-.565 1.016-.813.591-.486 1.296-1.226 1.823-1.78.506-.534 1.096-1.321 1.515-1.924.397-.571.885-1.364 1.198-1.985z" fill="#3BCAAB"/><g id="Clip path group_26"><mask id="mask25_227_645" style="mask-type:luminance" maskUnits="userSpaceOnUse" x="123" y="16" width="9" height="10"><g id="aa"><path id="Vector_232" d="M131.065 17.36c.022-.042.045-.1.064-.142.004-.006.279-.604.303-.646a5.58 5.58 0 0 0 .255-.522l.056.049c-.072.165-.15.328-.228.49l-.037.08a19.405 19.405 0 0 1-7.693 8.359c.075-.045.276-.166.48-.304.239-.16 1.242-.86 1.248-.863.316-.229.715-.565 1.016-.813.591-.486 1.296-1.226 1.823-1.78.506-.534 1.096-1.321 1.515-1.924.397-.571.885-1.364 1.198-1.985z" fill="#fff"/></g></mask><g mask="url(#mask25_227_645)"><g id="Group_67"><g id="Group_68" fill="#3BCAAB"><path id="Vector_233" d="M129.239 13.908l2.504 2.191a13.16 13.16 0 0 1-.227.49l-.038.08a19.668 19.668 0 0 1-.713 1.35l-2.504-2.192a19.994 19.994 0 0 0 .713-1.35l.038-.08c.077-.161.155-.325.227-.49"/><path id="Vector_234" d="M128.261 15.827l2.504 2.191a19.22 19.22 0 0 1-1.352 2.025l-2.503-2.19c.491-.646.942-1.322 1.351-2.026"/><path id="Vector_235" d="M126.91 17.852l2.503 2.191c-.431.567-.894 1.11-1.387 1.625l-2.504-2.19c.493-.516.955-1.06 1.388-1.626z"/><path id="Vector_236" d="M125.522 19.478l2.504 2.19a19.383 19.383 0 0 1-1.602 1.5l-2.504-2.191a19.11 19.11 0 0 0 1.602-1.5z"/><path id="Vector_237" d="M123.92 20.977l2.504 2.192a19.613 19.613 0 0 1-1.98 1.453l-.196.124-2.504-2.191.196-.124a19.616 19.616 0 0 0 1.98-1.454"/><path id="Vector_238" d="M121.744 22.555l2.504 2.192c-.153.095-.307.189-.463.28l-2.504-2.19c.156-.093.31-.186.462-.282"/></g></g></g></g></g></g><defs><clipPath id="clip0_227_645"><path fill="#fff" d="M0 .449h150v147.653H0z"/></clipPath></defs></svg>