<svg viewBox="0 0 150 157" fill="none" xmlns="http://www.w3.org/2000/svg"><g id="Contact Info" clip-path="url(#clip0_227_185)"><path id="Vector" d="M16.285 92.396c-2.456-24.198 3.848-47.23 12.905-63.42C38.431 12.633 50.428 3.139 63.541 2.374c13.24-.769 26.08 6.95 38.877 18.245 12.614 11.439 25.187 26.452 33.564 43.519 17.435 33.014 5.315 70.102-33.8 87.012-38.863 16.933-82.082-9.027-85.897-58.753z" fill="#F3FAFF"/><path id="Vector_2" d="M149.999 45.587H96.547v42.422H150V45.588z" fill="#EAF4FE"/><path id="Vector_3" d="M149.999 45.587H96.547v5.055H150v-5.055z" fill="#95C1F5"/><path id="Vector_4" d="M146.292 48.116a1.011 1.011 0 1 0 2.024.001 1.011 1.011 0 0 0-2.024-.001z" fill="#387BFF"/><path id="Vector_5" d="M143.092 48.116c0 .556.451 1.011 1.011 1.011a1.011 1.011 0 0 0 0-2.023c-.56 0-1.011.45-1.011 1.012z" fill="#FBD260"/><path id="Vector_6" d="M139.889 48.116a1.012 1.012 0 1 0 2.024-.002 1.012 1.012 0 0 0-2.024.002z" fill="#EAF4FE"/><path id="Vector_7" d="M10.724 130.558c-.84 0-2.166-.192-3.328-1.203-1.672-1.454-2.396-4.041-2.152-7.685.163-2.461 1.131-4.95 2.157-7.589 1.726-4.438 3.681-9.466 2.66-16.117l1.9-.292c1.099 7.16-1.046 12.674-2.766 17.105-1.013 2.604-1.889 4.855-2.033 7.019-.196 2.957.313 5.064 1.479 6.092 1.102.976 2.482.725 2.54.714l.386 1.884c-.035.007-.36.072-.843.072z" fill="#367082"/><path id="Vector_8" d="M25.461 145.808l1.873 2.856L11.61 153.7s-1.05-1.004 2.808-3.021c4.49-2.351 11.043-4.871 11.043-4.871z" fill="#88BDDA"/><path id="Vector_9" d="M28.254 145.808l-1.872 2.856 15.723 5.036s1.05-1.004-2.808-3.021c-4.492-2.351-11.043-4.871-11.043-4.871z" fill="#88BDDA"/><path id="Vector_10" d="M28.5 137.316h-3.285v11.697H28.5v-11.697z" fill="#88BDDA"/><path id="Vector_11" d="M25.251 146.411l1.602 2.723-13.46 4.806s-.898-.957 2.403-2.883c3.846-2.243 9.455-4.646 9.455-4.646z" fill="#ACD5F4"/><path id="Vector_12" d="M28.462 146.411l-1.6 2.723 13.459 4.806s.899-.957-2.404-2.883c-3.845-2.243-9.455-4.646-9.455-4.646z" fill="#ACD5F4"/><path id="Vector_13" d="M14.918 155.023a1.141 1.141 0 1 1-2.283-.002 1.141 1.141 0 0 1 2.283.002z" fill="#001F46"/><path id="Vector_14" d="M40.998 155.023a1.142 1.142 0 1 1-2.285-.005 1.142 1.142 0 0 1 2.285.005z" fill="#001F46"/><path id="Vector_15" d="M12.154 155.023a1.142 1.142 0 1 1-2.285-.003 1.142 1.142 0 0 1 2.285.003z" fill="#367082"/><path id="Vector_16" d="M43.76 155.023a1.141 1.141 0 1 1-2.282-.002 1.141 1.141 0 0 1 2.282.002z" fill="#367082"/><path id="Vector_17" d="M28.017 133.029h-2.403v4.207h2.403v-4.207z" fill="#367082"/><path id="Vector_18" d="M29.82 130.807a2.344 2.344 0 0 1-2.343 2.343h-1.323a2.344 2.344 0 0 1 0-4.687h1.323a2.343 2.343 0 0 1 2.343 2.344z" fill="#367082"/><path id="Vector_19" d="M44.678 128.664c.056-.276.089-2.006.089-2.303 0-1.892-1.223-3.425-2.732-3.425H11.594c-1.508 0-2.731 1.533-2.731 3.425 0 .297.032 2.027.091 2.303h35.724z" fill="#8DCFFF"/><path id="Vector_20" d="M8.582 129.591c0 .58.337 1.05.756 1.05h34.953c.42 0 .758-.471.758-1.05 0-.579-.338-1.049-.758-1.049H9.34c-.42 0-.757.47-.757 1.049z" fill="#367082"/><path id="Vector_21" d="M10.286 111.086c.752.055 5.523.139 6.345.15 5.224.063 9.722-.918 9.973-2.204a44.597 44.597 0 0 0 .135-16.177c-.223-1.285-4.79-2.265-10.123-2.2-.838.01-5.708.094-6.474.15a43.762 43.762 0 0 1 .144 20.281z" fill="#8DCFFF"/><path id="Vector_22" d="M9.568 90.805c-.584.007-.993.285-.911.62a43.714 43.714 0 0 1 .163 19.044c-.074.337.33.614.903.62.572.008 1.102-.261 1.174-.597a43.768 43.768 0 0 0-.124-19.09c-.079-.338-.618-.605-1.205-.597z" fill="#367082"/><path id="Vector_23" d="M9.335 111.076c.153.05 1.189.088 1.37.091 1.138.014 2.31-.99 2.536-2.255a43.828 43.828 0 0 0-.073-15.931c-.237-1.266-1.438-2.268-2.6-2.255-.184.003-1.236.043-1.394.092a43.726 43.726 0 0 1 .16 20.258z" fill="#7DC2F5"/><path id="Vector_24" d="M38.678 73.375s10.192-9.86 11.19-10.193c.997-.332 3.435-.776 3.435-.776s-6.316 10.637-7.645 13.295c-1.33 2.66-6.98-2.326-6.98-2.326z" fill="#EC9568"/><path id="Vector_25" d="M20.398 87.002s-2.515-6.254.332-7.977c2.846-1.723 8.914-3.182 11.125-3.541 4.424-.72 8.928-2.073 10.225.34 1.297 2.41 1.906 3.932.878 4.443-1.028.51-10.987 12.862-22.56 6.735z" fill="#FFC700"/><path id="Vector_26" d="M43.145 153.915v2.229h10.981s-1.75-3.024-5.41-3.661c-3.66-.636-5.571 1.433-5.571 1.433v-.001z" fill="#06357A"/><path id="Vector_27" d="M33.755 111.74s24.452-1.665 32.158.632c2.673.797 4.425 34.219 4.425 34.219l-3.025.636s7.321 2.547 11.14 2.547c3.82 0 4.457 2.865 4.457 2.865l-18.146.637-.634-2.547-6.184-27.056-22.6.48-1.591-12.413z" fill="#06357A"/><path id="Vector_28" d="M17.203 119.697s-7.321 1.273-8.913-13.05C6.7 92.323 6.221 80.864 6.221 80.864l9.072-4.774h7.958s6.685 2.228 7.321 5.41c.637 3.184-1.591 15.916-.636 18.144.954 2.229 4.456 9.55 4.456 9.55l-17.189 10.504v-.001z" fill="#EFB600"/><path id="Vector_29" d="M22.455 98.848l5.915-4.168 1.088-.766s1.91 2.865 1.114 4.775c-.796 1.91-6.525 3.183-7.48 3.023-.954-.159-.636-2.865-.636-2.865z" fill="#F7B68B"/><path id="Vector_30" d="M32.959 94.71l-.477 4.138-2.547.796-.478-5.73 3.502.796z" fill="#EC9568"/><path id="Vector_31" d="M14.656 118.742s2.865-9.231 11.778-10.505c8.912-1.273 10.504-1.273 10.504-1.273s6.048 8.276 12.414 43.927c.25 1.401-7.958 3.82-7.958 3.82l-9.549-31.831s-12.096 3.82-17.189-4.138z" fill="#06357A"/><path id="Vector_32" d="M30.731 115.718l10.663 38.993" stroke="#9AC7F7" stroke-width=".759" stroke-miterlimit="10"/><path id="Vector_33" d="M10.518 84.206s-3.183-4.616-4.456-3.342C4.789 82.137-.304 96.142.014 100.599c.319 4.456.63 7.889 3.82 8.116 11.141.796 19.894-5.57 19.894-5.57l-.796-6.525s-12.732.795-13.687 1.75c-.955.955.955-9.39 1.273-14.164z" fill="#FFC700"/><path id="Vector_34" d="M36.02 74.704l5.317-4.32s3.625 2.091 4.82 3.319c.662.678 1.827.494 1.827 1.492 0 .997-7.807 7.987-7.807 7.987l-4.158-8.478z" fill="#FEC12F"/><path id="Vector_35" d="M51.64 59.416l2.493-3.324s.72-.554.61-.056c-.111.499-.886 2.715-1.108 3.158a.248.248 0 0 0-.006.188c.149.487 2.2 1.315 2.25 1.945.055.72-.732 1.45-1.226 2.077-2.05 2.604-3.899.997-3.899.997s-1.44.443-1.108-1.662c.332-2.105 1.994-3.323 1.994-3.323z" fill="#EC9568"/><path id="Vector_36" d="M49.542 63.217l.603-2.527 1.828-.92 1.475 1.08s-.146.505-.921.228c-.776-.277-1.163.166-1.163.166l.256.79s.028 1.073-2.077 1.184v-.001z" fill="#F7B68B"/><path id="Vector_37" d="M55.982 61.16l-2.347-1.966-.27 1.24.976 1.495s1.184.52 1.641-.768z" fill="#F7B68B"/><path id="Vector_38" d="M15.92 70.876a661.935 661.935 0 0 1-2.536 6.854c.564.394 4.875.721 6.578 0 .178-1.611.74-3.915 1.063-5.163l-5.105-1.691z" fill="#F7B68B"/><path id="Vector_39" d="M25.01 72.122c.176.8-.33 1.587-1.128 1.76l-6.506 1.416a1.48 1.48 0 0 1-1.76-1.131l-2.094-9.635a1.48 1.48 0 0 1 1.131-1.761l6.504-1.411a1.477 1.477 0 0 1 1.76 1.13l2.094 9.631z" fill="#F7B68B"/><path id="Vector_40" d="M23.357 64.473s.67-1.12.706-1.73c.02-.307-.501-1.341-1.316-1.606-.815-.263-1.245.65-1.245.65s1.293.39 1.405.618c.113.23.45 2.068.45 2.068z" fill="#163F59"/><path id="Vector_41" d="M13.802 69.01s-1.787-3.488-1.844-4.61c-.055-1.127-.097-1.904 1.199-2.312 1.944-.61 2.06-.196 2.893-1.01.833-.809 2.25-2.637 2.813-2.91.943-.46 2.569-.466 3.036 1.389.344 1.368 1.288 1.516 1.274 1.574-.041.184-.368.421-.93.873-1.612 1.297-2.656 1.714-4.118 1.652-1.465-.058-4.213-.282-4.292.808-.079 1.09.723 4.195.657 4.461-.07.269-.407.216-.688.085z" fill="#000"/><path id="Vector_42" d="M16.48 71.457a.495.495 0 0 1-.378.587l-1.405.304a.493.493 0 0 1-.587-.376l-.56-2.568a.497.497 0 0 1 .378-.589l1.406-.304a.49.49 0 0 1 .585.376l.562 2.57z" fill="#F7B68B"/><path id="Vector_43" d="M24.856 69.632a.49.49 0 0 1-.374.588l-1.404.306a.495.495 0 0 1-.589-.379l-.557-2.567a.493.493 0 0 1 .376-.586l1.406-.307a.496.496 0 0 1 .585.38l.558 2.566v-.001z" fill="#F7B68B"/><path id="Vector_44" d="M14.609 69.72l1.099 5.057c.248 1.144 1.252 3.554 7.71 2.146 3.824-.828 3.074-3.609 2.871-4.533-.153-.702-1.406-2.634-1.897-2.95-.017-.01.34 1.566.34 1.566s-1.128-1.35-2.944-.956c-2.933.637-3.225 2.499-4.524 2.75-1.001.192-2.099-1.266-2.655-3.08z" fill="#000"/><path id="Vector_45" d="M21.125 72.801l2.006-.437a.492.492 0 0 0 .376-.588l-.061-.28-2.97.648.06.28c.06.266.322.435.588.378z" fill="#F7B68B"/><path id="Vector_46" d="M33.499 155.961h-3.594l5.929-57.412h5.21l-7.545 57.412z" fill="#3D5CAD"/><path id="Vector_47" d="M40.697 101.195l-2.286 17.387-2.71-18.738.133-1.295h4.553l.31 2.646z" fill="#06357A"/><path id="Vector_48" d="M81.635 155.961h-3.591l5.927-57.412h5.21l-7.546 57.412z" fill="#3D5CAD"/><path id="Vector_49" d="M88.833 101.195l-2.285 17.387-2.712-18.738.135-1.295h4.554l.308 2.646z" fill="#06357A"/><path id="Vector_50" d="M119.358 155.961h3.593l-5.927-57.412h-5.21l7.544 57.412z" fill="#3D5CAD"/><path id="Vector_51" d="M112.161 101.195l6.973 17.718-1.978-19.07-.132-1.294h-4.554l-.309 2.646z" fill="#06357A"/><path id="Vector_52" d="M122.053 96.684H78.735v3.356h43.318v-3.356z" fill="#0F3CB8"/><path id="Vector_53" d="M80.738 96.684H31.551v3.356h49.187v-3.356z" fill="#95C1F5"/><path id="Vector_54" d="M34.2 95.682l-.014-.027.014-.847h35.103v.847s.006.019 0 .027l-.09.158c-.45.735-1.26.867-2.187.867H36.478c-.927 0-1.735-.132-2.188-.867l-.09-.158z" fill="#D0DEE6"/><path id="Vector_55" d="M42.66 95.825s.006.016 0 .024l-.087.128c-.139.19-.313.33-.513.431h-5.338c-.891 0-1.67-.106-2.104-.7l-.084-.13a.125.125 0 0 1-.015-.021l.008-.417h8.133v.685z" fill="#B6C2C9"/><path id="Vector_56" d="M64.939 95.003h-17.54v.6h17.54v-.6z" fill="#B6C2C9"/><path id="Vector_57" d="M42.854 94.777l4.552-17.25c.12-.455.586-.824 1.041-.824h24.628c.454 0 .727.369.606.825l-4.55 17.249H42.853z" fill="#D7DFE2"/><path id="Vector_58" d="M56.782 85.74c-.233.88.294 1.595 1.174 1.595.879 0 1.782-.715 2.015-1.594.232-.882-.292-1.597-1.174-1.597-.882 0-1.783.715-2.015 1.597z" fill="#B6C2C9"/><path id="Vector_59" d="M106.991 37.608c1.157 0 1.157 2.289 2.314 2.289s1.158-2.289 2.316-2.289c1.159 0 1.158 2.289 2.316 2.289 1.157 0 1.159-2.289 2.318-2.289s1.158 2.289 2.316 2.289c1.157 0 1.159-2.289 2.317-2.289 1.158 0 1.159 2.289 2.319 2.289 1.159 0 1.157-2.289 2.313-2.289 1.156 0 1.158 2.289 2.317 2.289 1.158 0 1.159-2.289 2.319-2.289 1.159 0 1.159 2.289 2.319 2.289s1.16-2.289 2.321-2.289c1.16 0 1.162 2.289 2.323 2.289 1.162 0 1.162-2.289 2.324-2.289" stroke="#003E99" stroke-width=".908" stroke-miterlimit="10"/><path id="Vector_60" d="M55.786 29.903H88.24" stroke="#95C1F5" stroke-miterlimit="10"/><path id="Vector_61" d="M45.329 32.968h32.453" stroke="#95C1F5" stroke-miterlimit="10"/><path id="Vector_62" d="M51.099 36.033h32.453" stroke="#95C1F5" stroke-miterlimit="10"/><path id="Vector_63" d="M115.044 24.49H65.322v28.638h49.722V24.489z" fill="#FFC700"/><path id="Vector_64" d="M115.01 24.46H65.316l6.212 5.554 4.358 3.895 1.854 1.657 5.8 5.186 4.768 4.264c1.021.911 2.689.911 3.71 0l4.77-4.264 5.8-5.186 1.854-1.657 4.358-3.895 6.211-5.554h-.001z" fill="#FFAB01"/><path id="Vector_65" d="M75.885 44.043a777.4 777.4 0 0 1 1.854-1.595l5.8-4.986 4.769-4.101c1.02-.878 2.688-.878 3.71 0l4.769 4.101 5.8 4.986c.673.576 1.344 1.155 1.854 1.595l4.358 3.746 6.212 5.34-6.212-5.554-4.358-3.894c-.51-.456-1.181-1.059-1.854-1.658l-5.8-5.184-4.77-4.263c-1.02-.912-2.688-.912-3.71 0L83.54 36.84l-5.8 5.184-1.854 1.658-4.357 3.894-6.212 5.553 6.212-5.34 4.357-3.745z" fill="#FFAB01"/><path id="Vector_66" d="M115.01 24.46H65.316l6.212 5.299 4.358 3.717c.51.434 1.182 1.006 1.854 1.581l5.8 4.948 4.768 4.066c1.021.87 2.689.87 3.71 0l4.77-4.066 5.8-4.948 1.854-1.581 4.358-3.717 6.211-5.299h-.001z" fill="#F4DA80"/><path id="Vector_67" d="M111.241.286H83.988v14.429h27.253V.286z" fill="#95C1F5"/><path id="Vector_68" d="M93.851 20.393v-9.608h-9.607l9.607 9.608z" fill="#95C1F5"/><path id="Vector_69" d="M106.437 5.523H88.793v1.31h17.644v-1.31z" fill="#fff"/><path id="Vector_70" d="M106.437 9.018H88.793v1.31h17.644v-1.31z" fill="#fff"/><path id="Vector_71" d="M109.539 58.04l3.333 5.83 3.332 5.832 2.848-3.202 2.848-3.2-6.18-2.631-6.181-2.63z" fill="#95C1F5"/><path id="Vector_72" d="M112.759 67.904c0 6.081 4.929 11.01 11.012 11.01 6.082 0 11.009-4.929 11.009-11.01 0-6.08-4.929-11.01-11.009-11.01-6.081 0-11.012 4.93-11.012 11.01z" fill="#95C1F5"/><path id="Vector_73" d="M125.802 64.823h.963l-.66 3.733c-.073.432-.076.744-.006.938.068.192.221.288.461.288.239 0 .473-.055.702-.164.23-.11.437-.28.621-.511.184-.229.332-.518.448-.867.114-.349.172-.762.172-1.24 0-.687-.115-1.276-.344-1.763a3.322 3.322 0 0 0-.944-1.205 3.88 3.88 0 0 0-1.412-.695 6.651 6.651 0 0 0-1.75-.22 5.13 5.13 0 0 0-1.997.384 5.024 5.024 0 0 0-1.606 1.06c-.454.45-.81.986-1.066 1.605a5.204 5.204 0 0 0-.387 2.018c0 .716.107 1.36.324 1.929a3.94 3.94 0 0 0 .943 1.454 4.21 4.21 0 0 0 1.535.922c.612.215 1.312.324 2.102.324.265 0 .568-.032.909-.097.34-.065.646-.16.922-.288l.428 1.322a4.596 4.596 0 0 1-1.15.386c-.39.073-.837.11-1.343.11a7.669 7.669 0 0 1-2.473-.385 5.544 5.544 0 0 1-1.969-1.144 5.209 5.209 0 0 1-1.301-1.88c-.313-.749-.469-1.615-.469-2.597 0-1.001.179-1.905.538-2.715a6.271 6.271 0 0 1 1.446-2.065 6.4 6.4 0 0 1 2.108-1.316 6.985 6.985 0 0 1 2.534-.46c.844 0 1.629.121 2.355.364a5.608 5.608 0 0 1 1.887 1.047c.533.455.95 1.01 1.253 1.667.304.656.455 1.403.455 2.237 0 .588-.103 1.139-.31 1.654a4.13 4.13 0 0 1-.853 1.337 4.149 4.149 0 0 1-1.268.895 3.68 3.68 0 0 1-1.549.33c-.23 0-.444-.026-.641-.076a1.143 1.143 0 0 1-.496-.254 1.06 1.06 0 0 1-.297-.47c-.064-.192-.083-.43-.055-.716h-.055a6.716 6.716 0 0 1-.448.565 3.3 3.3 0 0 1-.53.488 2.26 2.26 0 0 1-1.39.462c-.221 0-.433-.047-.634-.144a1.552 1.552 0 0 1-.524-.406 1.981 1.981 0 0 1-.352-.634 2.511 2.511 0 0 1-.13-.827c0-.57.092-1.122.276-1.66a4.946 4.946 0 0 1 .75-1.425 3.948 3.948 0 0 1 1.102-.998 2.535 2.535 0 0 1 1.329-.38c.322 0 .592.049.813.145.221.096.422.223.607.378l.427-.442-.001.002zm-.868 1.667a1.463 1.463 0 0 0-.373-.234 1.23 1.23 0 0 0-.481-.081c-.275 0-.53.076-.764.232-.235.157-.436.36-.607.607-.169.249-.3.526-.392.834a3.104 3.104 0 0 0-.138.902c0 .303.062.55.186.744.123.192.339.288.64.288a.876.876 0 0 0 .413-.117c.146-.077.29-.18.428-.309a3.72 3.72 0 0 0 .398-.44 3.7 3.7 0 0 0 .346-.526l.344-1.9z" fill="#EEF6FD"/><path id="Vector_74" d="M68.761 9.608c-2.78.002-5.034 2.272-5.034 5.07.003 2.799 2.26 5.065 5.042 5.062 2.781-.002 5.036-2.272 5.034-5.07-.001-2.796-2.26-5.065-5.042-5.062z" fill="#0F3CB8"/><path id="Vector_75" d="M70.81 14.713l-3.348 1.946a.143.143 0 0 1-.057.023.202.202 0 0 1-.007-.06l-.005-3.892c.003-.035.007-.056.008-.063.008.002.03.006.059.025l3.35 1.942c.032.02.047.032.054.037a.165.165 0 0 1-.054.042z" fill="#EEF6FD"/><path id="Vector_76" d="M56.145 41.664L53.02 44.79l3.126 3.127 3.127-3.126-3.127-3.127z" stroke="#95C1F5" stroke-miterlimit="10"/><path id="Vector_77" d="M60.654 21.985a1.261 1.261 0 1 1-2.523.001 1.261 1.261 0 0 1 2.523 0z" fill="#0F3CB8"/></g><defs><clipPath id="clip0_227_185"><path fill="#fff" d="M0 .286h150V156.32H0z"/></clipPath></defs></svg>