<svg viewBox="0 0 150 151" fill="none" xmlns="http://www.w3.org/2000/svg"><g id="Experience" clip-path="url(#clip0_227_330)"><path id="Vector" d="M68.946 8.227c23.438 1.142 44.715 11.35 59.112 23.416 14.526 12.28 22.171 26.415 21.332 40.38-.848 14.102-9.767 26.47-22.102 38.241-12.451 11.557-28.311 22.517-45.639 28.73-33.662 13.318-67.683-5.204-79.176-49.12C-9.07 46.22 20.932 4.584 68.946 8.227z" fill="#F3FAFF"/><path id="Vector_2" d="M137.219 20.525H51.788v62.67h85.431v-62.67z" fill="#9BCA4E"/><path id="Vector_3" d="M137.219 13.255H51.788v7.523h85.431v-7.523z" fill="#88CF7A"/><path id="Vector_4" d="M57.683 16.67c0 .83-.722 1.505-1.608 1.505-.885 0-1.608-.675-1.608-1.506 0-.83.719-1.503 1.608-1.503.89 0 1.608.672 1.608 1.503z" fill="#4FDF07"/><path id="Vector_5" d="M62.776 16.67c0 .83-.72 1.505-1.608 1.505-.888 0-1.609-.675-1.609-1.506 0-.83.72-1.503 1.61-1.503.888 0 1.607.672 1.607 1.503z" fill="#D3F697"/><path id="Vector_6" d="M67.87 16.67c0 .83-.72 1.505-1.61 1.505-.888 0-1.608-.675-1.608-1.506 0-.83.72-1.503 1.609-1.503.888 0 1.608.672 1.608 1.503z" fill="#ACD4F8"/><path id="Vector_7" d="M123.502 24.54H72.839v53.725h50.663V24.54z" stroke="#7EB3FF" stroke-width=".096" stroke-miterlimit="10"/><path id="Vector_8" d="M72.84 70.59h50.662" stroke="#7EB3FF" stroke-width=".096" stroke-miterlimit="10"/><path id="Vector_9" d="M72.84 62.915h50.662" stroke="#7EB3FF" stroke-width=".096" stroke-miterlimit="10"/><path id="Vector_10" d="M72.84 55.24h50.662" stroke="#7EB3FF" stroke-width=".096" stroke-miterlimit="10"/><path id="Vector_11" d="M72.84 47.565h50.662" stroke="#7EB3FF" stroke-width=".096" stroke-miterlimit="10"/><path id="Vector_12" d="M72.84 39.89h50.662" stroke="#7EB3FF" stroke-width=".096" stroke-miterlimit="10"/><path id="Vector_13" d="M72.84 32.215h50.662" stroke="#7EB3FF" stroke-width=".096" stroke-miterlimit="10"/><path id="Vector_14" d="M106.615 24.54v53.725" stroke="#7EB3FF" stroke-width=".096" stroke-miterlimit="10"/><path id="Vector_15" d="M89.726 24.54v53.725" stroke="#7EB3FF" stroke-width=".096" stroke-miterlimit="10"/><path id="Vector_16" d="M72.84 24.54l-2.622 2.451" stroke="#7EB3FF" stroke-width=".096" stroke-miterlimit="10"/><path id="Vector_17" d="M72.84 32.215l-2.622 2.45" stroke="#7EB3FF" stroke-width=".096" stroke-miterlimit="10"/><path id="Vector_18" d="M72.84 39.89l-2.622 2.45" stroke="#7EB3FF" stroke-width=".096" stroke-miterlimit="10"/><path id="Vector_19" d="M72.84 47.565l-2.622 2.45" stroke="#7EB3FF" stroke-width=".096" stroke-miterlimit="10"/><path id="Vector_20" d="M72.84 55.24l-2.622 2.451" stroke="#7EB3FF" stroke-width=".096" stroke-miterlimit="10"/><path id="Vector_21" d="M72.84 62.915l-2.622 2.45" stroke="#7EB3FF" stroke-width=".096" stroke-miterlimit="10"/><path id="Vector_22" d="M72.84 70.59l-2.622 2.45" stroke="#7EB3FF" stroke-width=".096" stroke-miterlimit="10"/><path id="Vector_23" d="M67.944 74.472h-.208v-1.29l-.418.142v-.175l.594-.209h.032v1.532z" fill="#7EB3FF"/><path id="Vector_24" d="M69.572 73.822c0 .227-.041.396-.124.506-.083.11-.213.165-.389.165-.173 0-.301-.053-.385-.161-.084-.108-.127-.27-.13-.483v-.26c0-.222.042-.389.124-.498.083-.11.213-.163.39-.163.175 0 .304.052.387.157.084.105.126.268.128.487v.25zm-.207-.265c0-.163-.024-.283-.074-.358-.05-.075-.128-.113-.234-.113-.106 0-.182.038-.23.112-.05.075-.075.19-.076.345v.31c0 .164.026.286.076.364.051.079.13.118.232.118.103 0 .179-.036.228-.111.05-.074.076-.19.078-.35v-.317z" fill="#7EB3FF"/><path id="Vector_25" d="M68.331 66.853h-1.067v-.14l.563-.585a1.16 1.16 0 0 0 .173-.217.335.335 0 0 0 .048-.172.263.263 0 0 0-.078-.196.278.278 0 0 0-.205-.076.334.334 0 0 0-.24.082.304.304 0 0 0-.085.229h-.208c0-.14.049-.254.145-.34a.563.563 0 0 1 .388-.13c.152 0 .272.037.36.112a.369.369 0 0 1 .132.296c0 .15-.103.329-.307.536l-.436.443h.817v.158z" fill="#7EB3FF"/><path id="Vector_26" d="M69.572 66.203c0 .227-.041.395-.124.506-.083.11-.213.165-.389.165-.173 0-.301-.054-.385-.162-.084-.107-.127-.269-.13-.483v-.258c0-.224.042-.39.124-.5.083-.108.213-.162.39-.162.175 0 .304.052.387.157.084.105.126.267.128.486v.251zm-.207-.265c0-.163-.024-.283-.074-.358-.05-.075-.128-.113-.234-.113-.106 0-.182.038-.23.112-.05.075-.075.19-.076.345v.31c0 .164.026.285.076.364a.26.26 0 0 0 .232.118c.103 0 .179-.037.228-.111.05-.074.076-.19.078-.35v-.317z" fill="#7EB3FF"/><path id="Vector_27" d="M67.564 58.376h.156a.359.359 0 0 0 .23-.072.234.234 0 0 0 .084-.19c0-.178-.095-.268-.285-.268a.307.307 0 0 0-.213.072.245.245 0 0 0-.081.19h-.207c0-.12.047-.221.142-.3a.535.535 0 0 1 .36-.12c.153 0 .274.038.36.114.088.076.13.182.13.316a.321.321 0 0 1-.067.194.42.42 0 0 1-.187.139.4.4 0 0 1 .206.132.34.34 0 0 1 .073.224.4.4 0 0 1-.142.326.561.561 0 0 1-.373.12.578.578 0 0 1-.373-.116.377.377 0 0 1-.143-.306h.209c0 .08.027.144.083.192a.332.332 0 0 0 .225.073c.1 0 .177-.025.23-.074.053-.048.079-.119.079-.21 0-.09-.029-.157-.087-.204a.399.399 0 0 0-.251-.073h-.157v-.159z" fill="#7EB3FF"/><path id="Vector_28" d="M69.572 58.582c0 .227-.041.395-.124.506-.083.11-.213.165-.389.165-.173 0-.301-.054-.385-.162-.084-.108-.127-.269-.13-.483v-.258c0-.224.042-.39.124-.5.083-.108.213-.163.39-.163.175 0 .304.053.387.158.084.105.126.267.128.486v.25zm-.207-.265c0-.164-.024-.283-.074-.358-.05-.075-.128-.113-.234-.113-.106 0-.182.038-.23.112-.05.075-.075.19-.076.344v.31c0 .165.026.286.076.365a.26.26 0 0 0 .232.118c.103 0 .179-.037.228-.111.05-.074.076-.19.078-.35v-.317z" fill="#7EB3FF"/><path id="Vector_29" d="M68.137 51.1h.226v.158h-.226v.353h-.208v-.353h-.741v-.115l.729-1.056h.22v1.012zm-.715 0h.507v-.748l-.024.042-.483.705z" fill="#7EB3FF"/><path id="Vector_30" d="M69.572 50.962c0 .226-.041.395-.124.505-.083.11-.213.165-.389.165-.173 0-.301-.053-.385-.161-.084-.108-.127-.27-.13-.483v-.259c0-.223.042-.39.124-.499.083-.109.213-.163.39-.163.175 0 .304.052.387.158.084.105.126.267.128.486v.25zm-.207-.265c0-.164-.024-.284-.074-.359-.05-.075-.128-.113-.234-.113-.106 0-.182.038-.23.112-.05.075-.075.19-.076.345v.31c0 .164.026.286.076.364a.26.26 0 0 0 .232.119c.103 0 .179-.038.228-.112.05-.074.076-.19.078-.35v-.316z" fill="#7EB3FF"/><path id="Vector_31" d="M67.359 43.228l.083-.76h.834v.178h-.658l-.05.416a.553.553 0 0 1 .273-.066.46.46 0 0 1 .352.138.512.512 0 0 1 .132.372c0 .156-.046.28-.136.371a.516.516 0 0 1-.38.135.535.535 0 0 1-.352-.112.44.44 0 0 1-.156-.31h.196a.304.304 0 0 0 .099.198.327.327 0 0 0 .213.067.288.288 0 0 0 .227-.093.368.368 0 0 0 .082-.254.344.344 0 0 0-.089-.245.317.317 0 0 0-.236-.093.366.366 0 0 0-.214.055l-.054.042-.166-.04z" fill="#7EB3FF"/><path id="Vector_32" d="M69.572 43.342c0 .227-.041.395-.124.505-.083.11-.213.165-.389.165-.173 0-.301-.053-.385-.16-.084-.109-.127-.27-.13-.484v-.259c0-.223.042-.39.124-.499.083-.109.213-.163.39-.163.175 0 .304.052.387.158.084.105.126.267.128.486v.25zm-.207-.265c0-.164-.024-.283-.074-.359-.05-.075-.128-.113-.234-.113-.106 0-.182.038-.23.113-.05.074-.075.19-.076.344v.31c0 .165.026.286.076.364a.26.26 0 0 0 .232.119c.103 0 .179-.038.228-.112.05-.073.076-.19.078-.35v-.316z" fill="#7EB3FF"/><path id="Vector_33" d="M68.076 34.846v.164h-.038a.57.57 0 0 0-.385.134.542.542 0 0 0-.166.365.457.457 0 0 1 .352-.138c.142 0 .255.047.34.14a.519.519 0 0 1 .126.362.516.516 0 0 1-.137.377.486.486 0 0 1-.367.14.48.48 0 0 1-.38-.167.642.642 0 0 1-.146-.433v-.074c0-.28.065-.495.192-.643.128-.148.319-.224.572-.227h.037zm-.272.686c-.07 0-.136.02-.195.06a.315.315 0 0 0-.125.15v.07c0 .126.031.227.091.303.06.077.136.116.226.116a.272.272 0 0 0 .22-.097.38.38 0 0 0 .08-.252.389.389 0 0 0-.08-.253.269.269 0 0 0-.216-.097h-.001z" fill="#7EB3FF"/><path id="Vector_34" d="M69.572 35.72c0 .227-.041.396-.124.506-.083.11-.213.165-.389.165-.173 0-.301-.053-.385-.161-.084-.108-.127-.27-.13-.483v-.259c0-.223.042-.39.124-.499.083-.109.213-.163.39-.163.175 0 .304.052.387.158.084.105.126.267.128.486v.25zm-.207-.264c0-.164-.024-.284-.074-.359-.05-.075-.128-.113-.234-.113-.106 0-.182.038-.23.112-.05.075-.075.19-.076.345v.31c0 .165.026.285.076.364a.26.26 0 0 0 .232.119c.103 0 .179-.038.228-.112.05-.074.076-.19.078-.35v-.316z" fill="#7EB3FF"/><path id="Vector_35" d="M68.315 27.335l-.674 1.415h-.217l.672-1.365h-.882v-.16h1.101v.11z" fill="#7EB3FF"/><path id="Vector_36" d="M69.572 28.1c0 .227-.041.395-.124.506-.083.11-.213.165-.389.165-.173 0-.301-.054-.385-.162-.084-.107-.127-.269-.13-.483v-.258c0-.223.042-.39.124-.5.083-.108.213-.162.39-.162.175 0 .304.052.387.157.084.105.126.268.128.486v.251zm-.207-.265c0-.163-.024-.283-.074-.358-.05-.075-.128-.113-.234-.113-.106 0-.182.038-.23.112-.05.075-.075.19-.076.345v.31c0 .164.026.285.076.364a.26.26 0 0 0 .232.118c.103 0 .179-.037.228-.111.05-.074.076-.19.078-.35v-.317z" fill="#7EB3FF"/><path id="Vector_37" d="M78.825 81.102h-1.068v-.14l.564-.585c.084-.089.142-.16.173-.216a.334.334 0 0 0 .047-.172.263.263 0 0 0-.077-.196.278.278 0 0 0-.206-.077.333.333 0 0 0-.24.083.3.3 0 0 0-.085.228h-.208c0-.14.049-.254.145-.34a.563.563 0 0 1 .388-.13c.152 0 .272.038.36.112a.368.368 0 0 1 .132.297c0 .15-.103.329-.307.536l-.436.442h.817v.159-.001z" fill="#7EB3FF"/><path id="Vector_38" d="M80.066 80.451c0 .227-.042.396-.124.506-.083.11-.213.165-.39.165-.172 0-.3-.053-.384-.161-.085-.108-.128-.27-.13-.483v-.259c0-.223.042-.39.124-.499.083-.109.213-.163.39-.163.175 0 .304.052.387.158.084.104.125.267.128.486v.25h-.001zm-.207-.264c0-.164-.025-.284-.074-.359-.05-.075-.128-.113-.234-.113-.106 0-.183.038-.231.112-.05.075-.074.19-.075.345v.31c0 .164.025.286.076.364a.258.258 0 0 0 .232.118c.103 0 .178-.037.228-.111.05-.074.075-.19.078-.35v-.316z" fill="#7EB3FF"/><path id="Vector_39" d="M81.399 81.102H80.33v-.14l.564-.585c.084-.089.141-.16.173-.216a.334.334 0 0 0 .047-.172.263.263 0 0 0-.077-.196.278.278 0 0 0-.206-.077.333.333 0 0 0-.24.083.302.302 0 0 0-.085.228H80.3c0-.14.047-.254.144-.34a.562.562 0 0 1 .388-.13.54.54 0 0 1 .36.112.369.369 0 0 1 .133.297c0 .15-.103.329-.308.536l-.435.442h.817v.159-.001z" fill="#7EB3FF"/><path id="Vector_40" d="M82.64 80.451c0 .227-.042.396-.123.506-.084.11-.213.165-.39.165-.172 0-.302-.053-.384-.161-.085-.108-.128-.27-.13-.483v-.259c0-.223.041-.39.123-.499.083-.109.213-.163.39-.163.175 0 .304.052.387.158.084.104.125.267.128.486v.25zm-.207-.264c0-.164-.024-.284-.074-.359-.05-.075-.127-.113-.234-.113-.105 0-.182.038-.23.112-.05.075-.075.19-.076.345v.31c0 .164.027.286.077.364.05.079.129.118.232.118.103 0 .178-.037.228-.111.05-.074.075-.19.078-.35v-.316z" fill="#7EB3FF"/><path id="Vector_41" d="M96.054 81.102h-1.067v-.14l.563-.585a1.16 1.16 0 0 0 .173-.216.335.335 0 0 0 .048-.172.263.263 0 0 0-.078-.196.278.278 0 0 0-.205-.077.33.33 0 0 0-.24.083.3.3 0 0 0-.085.228h-.207c0-.14.048-.254.144-.34a.564.564 0 0 1 .388-.13.54.54 0 0 1 .36.112.368.368 0 0 1 .132.297c0 .15-.103.329-.307.536l-.436.442h.817v.159-.001z" fill="#7EB3FF"/><path id="Vector_42" d="M97.296 80.451c0 .227-.042.396-.124.506-.084.11-.214.165-.39.165-.172 0-.301-.053-.385-.161-.084-.108-.127-.27-.13-.483v-.259c0-.223.042-.39.124-.499.084-.109.214-.163.39-.163.176 0 .304.052.388.158.083.104.125.267.127.486v.25zm-.208-.264c0-.164-.024-.284-.074-.359-.05-.075-.127-.113-.234-.113-.105 0-.182.038-.23.112-.05.075-.075.19-.076.345v.31c0 .164.026.286.077.364.05.079.129.118.231.118.103 0 .179-.037.228-.111.05-.074.076-.19.078-.35v-.316z" fill="#7EB3FF"/><path id="Vector_43" d="M98.628 81.102h-1.067v-.14l.563-.585a1.16 1.16 0 0 0 .173-.216.335.335 0 0 0 .049-.172.265.265 0 0 0-.078-.196.278.278 0 0 0-.206-.077.333.333 0 0 0-.24.083.302.302 0 0 0-.085.228h-.207c0-.14.048-.254.145-.34a.562.562 0 0 1 .388-.13c.152 0 .272.038.36.112a.369.369 0 0 1 .132.297c0 .15-.103.329-.307.536l-.436.442h.817v.159-.001z" fill="#7EB3FF"/><path id="Vector_44" d="M99.529 81.102h-.209v-1.29l-.417.142v-.175l.593-.209h.033v1.532z" fill="#7EB3FF"/><path id="Vector_45" d="M113.283 81.102h-1.067v-.14l.563-.585a1.16 1.16 0 0 0 .173-.216.33.33 0 0 0 .048-.172.263.263 0 0 0-.078-.196.277.277 0 0 0-.205-.077.335.335 0 0 0-.24.083.302.302 0 0 0-.086.228h-.207c0-.14.048-.254.145-.34a.561.561 0 0 1 .388-.13c.152 0 .272.038.359.112a.37.37 0 0 1 .132.297c0 .15-.103.329-.307.536l-.436.442h.818v.159-.001z" fill="#7EB3FF"/><path id="Vector_46" d="M114.525 80.451c0 .227-.042.396-.124.506-.083.11-.213.165-.389.165-.173 0-.302-.053-.385-.161-.085-.108-.127-.27-.13-.483v-.259c0-.223.042-.39.124-.499.083-.109.213-.163.389-.163.176 0 .305.052.388.158.084.104.125.267.128.486v.25h-.001zm-.207-.264c0-.164-.025-.284-.074-.359-.05-.075-.128-.113-.234-.113-.106 0-.182.038-.231.112-.05.075-.074.19-.075.345v.31c0 .164.025.286.076.364a.259.259 0 0 0 .232.118c.103 0 .178-.037.228-.111.05-.074.075-.19.078-.35v-.316z" fill="#7EB3FF"/><path id="Vector_47" d="M115.858 81.102h-1.067v-.14l.563-.585a1.16 1.16 0 0 0 .173-.216.34.34 0 0 0 .048-.172.263.263 0 0 0-.078-.196.277.277 0 0 0-.205-.077.335.335 0 0 0-.24.083.302.302 0 0 0-.086.228h-.206c0-.14.048-.254.145-.34a.561.561 0 0 1 .388-.13c.152 0 .272.038.359.112a.37.37 0 0 1 .133.297c0 .15-.103.329-.307.536l-.436.442h.817v.159l-.001-.001z" fill="#7EB3FF"/><path id="Vector_48" d="M117.145 81.102h-1.068v-.14l.564-.585c.084-.089.141-.16.173-.216a.338.338 0 0 0 .047-.172.26.26 0 0 0-.078-.196.275.275 0 0 0-.205-.077.335.335 0 0 0-.24.083.302.302 0 0 0-.085.228h-.208c0-.14.048-.254.145-.34a.563.563 0 0 1 .388-.13c.152 0 .272.038.359.112a.367.367 0 0 1 .133.297c0 .15-.103.329-.307.536l-.436.442h.817v.159l.001-.001z" fill="#7EB3FF"/><path id="Vector_49" opacity=".34" d="M123.502 32.215H72.839v7.675h50.663v-7.675z" fill="#fff"/><path id="Vector_50" opacity=".34" d="M123.502 47.565H72.839v7.674h50.663v-7.674z" fill="#fff"/><path id="Vector_51" opacity=".34" d="M123.502 62.915H72.839v7.675h50.663v-7.675z" fill="#fff"/><path id="Vector_52" d="M95.606 32.215H72.84v1.225h22.767v-1.225z" fill="#D1F498"/><path id="Vector_53" d="M111.947 35.44H72.839v1.225h39.108V35.44z" fill="#BEF264"/><path id="Vector_54" d="M86.778 38.664H72.839v1.226h13.939v-1.226z" fill="#EAF4FE"/><path id="Vector_55" d="M113.935 47.565H72.839v1.225h41.096v-1.225z" fill="#D1F498"/><path id="Vector_56" d="M89.727 50.79H72.839v1.225h16.888V50.79z" fill="#BEF264"/><path id="Vector_57" d="M106.615 54.014H72.839v1.225h33.776v-1.225z" fill="#EAF4FE"/><path id="Vector_58" d="M89.727 63.014H72.839v1.226h16.888v-1.226z" fill="#D1F498"/><path id="Vector_59" d="M106.615 66.239H72.839v1.225h33.776v-1.225z" fill="#BEF264"/><path id="Vector_60" d="M100.716 69.464H72.839v1.225h27.877v-1.225z" fill="#EAF4FE"/><path id="Vector_61" d="M10.786 141.646l-.273 2.975-.583 2.471-1.07.664-.806.226-.232.419-2.779 1.719c-.748.308-1.809.465-3.087.176-.438-.098.17-1.211.324-1.379.874-.968 2.214-2.021 2.214-2.021l2.167-2.496 2.45-3.125 1.674.371z" fill="#161711"/><path id="Vector_62" d="M35.545 138.413l-.695 1.192-.376 1.343.051 2.141 1.234.171.935-.182.609.401s3.5.654 4.815.699c2.18.07 3.375-.135 3.805-.53.239-.22-.775-.655-1.11-.701-1.936-.283-3.971-1.447-3.971-1.447l-1.593-1.69-.306-1.195-3.399-.202h.001z" fill="#161711"/><path id="Vector_63" d="M25.78 73.613L5.714 144.276l5.097.304 9.738-22.482 2.358-6.779 11.575-26.597 2.23-14.628-10.934-.48z" fill="#3F6212"/><path id="Vector_64" d="M34.584 138.627l1.439-27.165-1.266-12.45-1.538-17.084 2.326-11.438 7.97 1.195.9 18.423-.494 17.472-.393 6.585-3.008 25.928-5.937-1.466z" fill="#3F6212"/><path id="Vector_65" d="M53.794 49.64s4.667.746 12.407-3.34c2.614-1.38.851.492-.47 2.915-1.32 2.422-7.848 4.737-13.92 4.2-6.069-.536 1.983-3.775 1.983-3.775z" fill="#E9D6B8"/><path id="Vector_66" d="M65.138 47.721s.234-3.01.949-3.53c.713-.52 3.447-2.257 3.447-2.257l.737-.384s.837.55-1.013 1.697c-1.852 1.15-.662 1.062-.662 1.062l2.047-.427 2.539-.337 1.114-.29s.622-.208.808-.137c.535.21.154.545.154.545l-4.255 1.485 4.249-.332s.546.046.615.321c.063.26-.114.284-.114.284l-4.773 1.492 2.2.07s.534.06.613.324c.086.29.118.365.118.365l-8.57.885-.204-.837.001.001z" fill="#E9D6B8"/><path id="Vector_67" d="M63.815 51.359l2.684-1.621-2.152-3.12-2.686 1.622 2.154 3.119z" fill="#fff"/><path id="Vector_68" d="M71.294 45.868l2.996-.062s.67-.086.998.066c.376.173.22.508.22.508l-4.528.532.314-1.044z" fill="#E9D6B8"/><path id="Vector_69" d="M34.133 37.026s-1.327 1.959 3.483 13.446c2.687 6.42 4.209 10.486 7.448 10.772 5.551.489 20.293-8.29 20.293-8.29l-2.396-6.351s-10.944 5.008-14.17 3.611c-.755-.328-5.651-12.795-8.23-14.404-1.197-.745-5.637.829-6.429 1.215h.001z" fill="#3F6212"/><path id="Vector_70" d="M46.657 88.48l-2.96 2.868-2.402-7.532-2.359 8.698-18.852-2.376s2.79-15.354 4.578-22.47L18.61 49.804s.248-12.79 5.414-13.48c8.343-1.115 15.945-.81 15.945-.81s11.81 29.913 6.688 52.967z" fill="#3F6212"/><path id="Vector_71" d="M34.477 36.213l1.392 16.772-9.312-13.356-.162-3.466 8.082.05z" fill="#E9F6FF"/><path id="Vector_72" d="M22.592 81.765l-2.86-1.302-.348-.306.353-.596.615.038-.21-1.685 2.879-.632 1.45-.732-1.105 4.659" fill="#E9D6B8"/><path id="Vector_73" d="M13.691 65.442L24.404 76.35s-.264 1.684-1.122.84c-.103-.098.363-.46-.266-.741-2.542-1.132-8.446-2.77-10.707-4.598-2.969-2.403-5.152-5.297-5.152-5.297l6.534-1.112z" fill="#E9D6B8"/><path id="Vector_74" d="M19.638 76l2.496-2.427L19.272 71l-2.495 2.428 2.861 2.573z" fill="#E7F5FE"/><path id="Vector_75" d="M32.607 38.92s5.92 12.612 2.263 25.495c-.289 1.014-1.69 1.614-1.69 1.614l-1.628-1.663s1.922-14.816 1.055-25.446z" fill="#7BFF38"/><path id="Vector_76" d="M31.958 38.39l-.36 2.173-5.182-3.325-.04-1.073 5.582 2.226z" fill="#D1DBEA"/><path id="Vector_77" d="M32.844 36.053l1.19 4.233-1.18-1.45-.01-2.783z" fill="#D1DBEA"/><path id="Vector_78" d="M19.35 49.39l-4.636 15.136 6.588 7.964s-2.598 3.607-3.676 3.185C10.166 72.755 4.262 62.74 4.262 62.74l8.204-21.339s1.771-3.415 8.568-4.472c4.926-.765-1.36 11.204-1.685 12.46h.001z" fill="#3F6212"/><path id="Vector_79" d="M25.594 33.433c.23.806.625 2.052 1.018 2.772.618 1.12 5.461 2.354 6.202 2.48.743.126-.386-3.443-.435-4.262-.037-.628-.457-.41.01-1.34l-6.795.35z" fill="#E9D6B8"/><path id="Vector_80" d="M32.716 35.75l1.436 3.747 1.84 14.365 2.648-11.29-2.177-1.955 1.18-1.817-2.603-2.964-2.324-.086z" fill="#000"/><path id="Vector_81" d="M41.233 75.282l.22 7.917-1.661-7.147-15.626 9.407s-1.292-10.675.496-17.79L18.61 49.803s-6.541-10.08.631-12.503c1.117-.377 5.019-.855 6.223-.934 1.701-.112 4.875 4.455 5.64 5.766.818 1.405 6.135 14.143 6.135 14.143l3.994 19.006z" fill="#3F6212"/><path id="Vector_82" d="M26.036 36.06l-2.786.582 2.24 3.911 3.198 1.778-.021 3.386 8.31 11.09-5.427-14.623-5.514-6.123z" fill="#163F59"/><path id="Vector_83" d="M26.036 35.854l-2.786.58 2.23 3.925 3.192 1.694-.03 3.238 8.28 10.59-5.389-13.976-5.497-6.051z" fill="#000"/><path id="Vector_84" d="M32.814 38.684l-.856-.086.086 1.972 1.03.683.592-.829-.852-1.74z" fill="#7BFF38"/><path id="Vector_85" d="M33.612 31.742c.165.7-.31 1.387-1.055 1.54l-6.082 1.237c-.744.153-1.48-.291-1.645-.99l-1.958-8.424c-.165-.697.31-1.387 1.057-1.54l6.08-1.233c.745-.154 1.481.288 1.644.986l1.958 8.423v.001z" fill="#E9D6B8"/><path id="Vector_86" d="M32.066 25.054s.628-.98.66-1.513c.018-.268-.468-1.173-1.23-1.404-.762-.23-1.164.568-1.164.568s1.21.342 1.314.541c.105.2.42 1.809.42 1.809v-.001z" fill="#163F59"/><path id="Vector_87" d="M23.133 29.02s-1.67-3.048-1.723-4.03c-.051-.985-.092-1.665 1.121-2.021 1.817-.534 1.927-.17 2.704-.883.779-.707 2.104-2.306 2.63-2.546.88-.401 2.401-.406 2.838 1.216.322 1.196 1.205 1.325 1.191 1.376-.038.161-.344.368-.869.764-1.507 1.134-2.483 1.498-3.85 1.444-1.37-.051-3.939-.247-4.011.707-.075.952.674 3.668.613 3.9-.067.236-.38.19-.643.075l-.001-.001z" fill="#000"/><path id="Vector_88" d="M25.638 31.16a.437.437 0 0 1-.354.515l-1.313.266a.463.463 0 0 1-.55-.329l-.522-2.246a.436.436 0 0 1 .352-.516l1.315-.265c.25-.05.494.097.546.328l.526 2.248z" fill="#E9D6B8"/><path id="Vector_89" d="M33.468 29.565c.056.234-.103.464-.35.514l-1.313.268c-.25.05-.496-.098-.55-.332l-.521-2.245a.432.432 0 0 1 .351-.513l1.314-.268c.247-.05.493.1.547.331l.522 2.245z" fill="#E9D6B8"/><path id="Vector_90" d="M23.888 29.642l1.028 4.422c.233 1 1.17 3.108 7.207 1.876 3.574-.725 2.873-3.155 2.684-3.963-.143-.614-1.314-2.303-1.773-2.58-.016-.008.317 1.37.317 1.37s-1.053-1.182-2.752-.836c-2.74.556-3.014 2.183-4.228 2.403-.936.17-1.962-1.106-2.483-2.692z" fill="#000"/><path id="Vector_91" d="M29.98 32.336l1.874-.382a.432.432 0 0 0 .352-.515l-.057-.246-2.777.567.058.246c.055.232.3.38.55.33z" fill="#E9D6B8"/><path id="Vector_92" d="M21.607 51.008l6.51-.896-.289-1.846-6.511.896.29 1.846z" fill="#000"/><g id="Group"><path id="Vector_93" d="M78.639 17.458c-.088.16-.177.32-.263.48.086-.16.174-.32.263-.48z" fill="#CED6D9"/><path id="Vector_94" d="M93.137 4.703c.1-.04.2-.077.299-.114-.1.037-.2.075-.299.114z" fill="#94999B"/><g id="Group_2"><g id="Clip path group"><mask id="mask0_227_330" style="mask-type:luminance" maskUnits="userSpaceOnUse" x="74" y="14" width="5" height="4"><g id="b"><path id="Vector_95" d="M78.639 17.458c-.089.16-.177.32-.263.48l-3.83-3.135c.087-.16.174-.32.264-.479l3.829 3.134z" fill="#fff"/></g></mask><g mask="url(#mask0_227_330)"><g id="Group_3"><g id="Group_4"><path id="Vector_96" d="M74.81 14.324l3.83 3.133c-.09.16-.178.32-.264.48l-3.829-3.135c.086-.16.174-.32.263-.478z" fill="#A9B0B2"/></g></g></g></g></g><g id="Group_5"><g id="Clip path group_2"><mask id="mask1_227_330" style="mask-type:luminance" maskUnits="userSpaceOnUse" x="73" y="16" width="5" height="5"><g id="c"><path id="Vector_97" d="M73.597 16.804l3.83 3.134c-.096.234-.19.468-.28.704l-3.83-3.135c.09-.235.184-.47.28-.703z" fill="#fff"/></g></mask><g mask="url(#mask1_227_330)"><g id="Group_6"><g id="Group_7"><path id="Vector_98" d="M73.597 16.804l3.83 3.134c-.096.234-.19.468-.28.704l-3.83-3.135c.09-.235.184-.47.28-.703z" fill="#A9B0B2"/></g></g></g></g></g><g id="Group_8"><g id="Clip path group_3"><mask id="mask2_227_330" style="mask-type:luminance" maskUnits="userSpaceOnUse" x="72" y="18" width="5" height="5"><g id="d"><path id="Vector_100" d="M72.838 18.894l3.83 3.134-.015.047-3.829-3.135.014-.046z" fill="#fff"/></g></mask><g mask="url(#mask2_227_330)"><g id="Group_9"><g id="Group_10"><path id="Vector_101" d="M72.838 18.894l3.83 3.134-.015.047-3.829-3.135.014-.046z" fill="#ADB4B6"/></g></g></g></g></g><g id="Group_11"><g id="Clip path group_4"><mask id="mask3_227_330" style="mask-type:luminance" maskUnits="userSpaceOnUse" x="89" y="1" width="5" height="4"><g id="e"><path id="Vector_102" d="M93.437 4.589c-.1.037-.2.075-.299.114l-3.83-3.135c.1-.04.2-.077.298-.114 1.15.94 2.681 2.195 3.83 3.135z" fill="#fff"/></g></mask><g mask="url(#mask3_227_330)"><g id="Group_12"><g id="Group_13"><path id="Vector_103" d="M89.606 1.455l3.83 3.134c-.099.037-.2.075-.298.114l-3.83-3.135c.1-.04.2-.076.298-.113z" fill="#979D9F"/></g></g></g></g></g><g id="Group_14"><g id="Clip path group_5"><mask id="mask4_227_330" style="mask-type:luminance" maskUnits="userSpaceOnUse" x="91" y="0" width="5" height="5"><g id="f"><path id="Vector_104" d="M95.606 3.9c-.162.043-.323.087-.484.134L91.292.899c.16-.046.32-.091.483-.132l3.83 3.134z" fill="#fff"/></g></mask><g mask="url(#mask4_227_330)"><g id="Group_15"><g id="Group_16"><path id="Vector_105" d="M91.775.766l3.83 3.135c-.161.042-.322.086-.483.133L91.292.899c.16-.046.32-.091.483-.132" fill="#393CA6"/></g></g></g></g></g><g id="Group_17"><g id="Clip path group_6"><mask id="mask5_227_330" style="mask-type:luminance" maskUnits="userSpaceOnUse" x="72" y="24" width="4" height="5"><g id="g"><path id="Vector_107" d="M75.855 27.741c.003.094.004.188.01.28l-3.83-3.134-.01-.28 3.83 3.134z" fill="#fff"/></g></mask><g mask="url(#mask5_227_330)"><g id="Group_18"><g id="Group_19"><path id="Vector_108" d="M72.024 24.606l3.83 3.135c.004.093.005.188.01.28l-3.83-3.135-.01-.28z" fill="#C8A756"/></g></g></g></g></g><path id="Vector_109" d="M72.024 24.606l.01.28a4.668 4.668 0 0 1-.01-.28z" fill="#F3CC68"/><g id="Group_20"><g id="Clip path group_7"><mask id="mask6_227_330" style="mask-type:luminance" maskUnits="userSpaceOnUse" x="72" y="25" width="4" height="4"><g id="h"><path id="Vector_110" d="M72.054 25.188l3.83 3.135-.92-.743c-.97-.78-1.938-1.56-2.906-2.341l-.004-.051z" fill="#fff"/></g></mask><g mask="url(#mask6_227_330)"><g id="Group_21"><g id="Group_22"><path id="Vector_111" d="M72.054 25.188l3.83 3.135a12.16 12.16 0 0 0 .647 3.1l-3.83-3.135a12.129 12.129 0 0 1-.647-3.1z" fill="#C8A756"/></g></g></g></g></g><path id="Vector_112" d="M91.775.766l3.83 3.135-.623 5.19-3.829-3.134.622-5.19z" fill="#C5C7A0"/><g id="Group_23"><g id="Clip path group_8"><mask id="mask7_227_330" style="mask-type:luminance" maskUnits="userSpaceOnUse" x="97" y="0" width="5" height="4"><g id="i"><path id="Vector_113" d="M97.985.238l3.829 3.134c-.28-.03-.567-.055-.857-.07L97.127.169c.29.013.577.04.858.07z" fill="#fff"/></g></mask><g mask="url(#mask7_227_330)"><g id="Group_24"><g id="Group_25"><path id="Vector_114" d="M97.985.238l3.829 3.134c-.28-.03-.567-.055-.857-.07L97.127.169c.29.013.577.04.858.07z" fill="#734FB8"/></g></g></g></g></g><g id="Group_26"><g id="Clip path group_9"><mask id="mask8_227_330" style="mask-type:luminance" maskUnits="userSpaceOnUse" x="91" y="5" width="8" height="5"><g id="j"><path id="Vector_115" d="M94.85 5.542l3.83 3.136c-1.204-.065-2.449.089-3.698.414l-3.829-3.135c1.249-.326 2.494-.478 3.698-.415z" fill="#fff"/></g></mask><g mask="url(#mask8_227_330)"><g id="Group_27"><g id="Group_28"><path id="Vector_116" d="M94.85 5.542l3.83 3.136c-1.204-.065-2.449.089-3.698.414l-3.829-3.135c1.249-.326 2.494-.478 3.698-.415z" fill="#F4901E"/></g></g></g></g></g><path id="Vector_117" d="M91.292.899c.162-.047.322-.092.484-.137 1.947-.507 3.566-.687 5.348-.596L94.85 5.542c-1.204-.064-2.449.088-3.697.415l.622-5.191c-.162.04-.322.085-.484.132z" fill="#FEC12F"/><path id="Vector_118" d="M97.124.167l3.829 3.135-2.273 5.376-3.83-3.136L97.125.167z" fill="#3FB94A"/><g id="Group_29"><g id="Clip path group_10"><mask id="mask9_227_330" style="mask-type:luminance" maskUnits="userSpaceOnUse" x="94" y="5" width="10" height="6"><g id="k"><path id="Vector_119" d="M99.455 7.19l3.829 3.136c-1.175-.962-2.727-1.552-4.601-1.648l-3.83-3.135c1.875.095 3.426.686 4.602 1.648z" fill="#fff"/></g></mask><g mask="url(#mask9_227_330)"><g id="Group_30"><path id="Vector_120" d="M99.455 7.19l3.829 3.136c-1.175-.962-2.727-1.552-4.601-1.648l-3.83-3.135c1.875.095 3.426.686 4.602 1.648z" fill="#3CB80F"/></g></g></g></g><path id="Vector_121" d="M84.365 16.703l.019-.026a19.393 19.393 0 0 1 .647-.854c.096-.12.197-.238.296-.356.148-.177.299-.352.451-.524.093-.102.185-.204.28-.305.156-.167.315-.332.477-.494.093-.093.185-.187.28-.278.196-.19.397-.374.599-.556.068-.06.135-.125.204-.185a20.072 20.072 0 0 1 1.505-1.195l.177-.125c.186-.13.373-.258.562-.382l.177-.115a18.05 18.05 0 0 1 1.476-.857 19.784 19.784 0 0 1 .871-.426c.05-.023.1-.044.15-.065.222-.1.446-.194.672-.282.034-.014.07-.03.105-.043.246-.095.494-.184.743-.265l.168-.055c.253-.08.506-.156.759-.222l-3.83-3.135a14.91 14.91 0 0 0-.758.222c-.056.018-.114.036-.17.056a16.456 16.456 0 0 0-.85.307 16.57 16.57 0 0 0-.817.347c-.243.11-.485.228-.726.35l-.15.079c-.218.114-.436.233-.653.356-.032.02-.068.04-.102.06l-.044.024a22.53 22.53 0 0 0-.671.413l-.182.12c-.188.123-.374.25-.558.38-.06.042-.119.082-.177.125-.216.155-.43.314-.64.478-.011.008-.02.017-.03.026-.284.222-.562.452-.835.69-.07.062-.137.126-.207.188-.202.18-.403.365-.597.553-.034.033-.07.063-.103.096-.06.06-.118.123-.177.184a21.32 21.32 0 0 0-.757.8c-.154.172-.303.346-.45.522-.057.067-.117.132-.173.2l-.125.158-.125.158c-.179.23-.356.46-.523.696l-.009.013c-.167.233-.325.47-.48.71l-.104.161c-.034.053-.069.104-.1.156a17.445 17.445 0 0 0-1.265 2.434c-.123.293-.236.585-.339.873l-.006.014a14.87 14.87 0 0 0-.238.737l-.049.17c-.07.248-.136.495-.19.739-.001.014-.005.028-.008.042-.05.233-.093.463-.13.69l-.026.16a11.82 11.82 0 0 0-.084.698l-.007.1c-.015.206-.025.41-.03.611 0 .047-.003.095-.002.141l-.003.096c0 .094.01.184.012.278.004.136.007.274.017.409.009.115.022.228.035.342.014.13.029.262.049.39.017.112.039.22.06.33.025.125.049.25.079.372.027.108.057.213.087.319.034.117.068.235.108.35.012.036.02.075.033.111.046.129.096.255.148.379l.015.037c.077.182.162.357.253.53l.071.13c.082.148.168.292.26.431.016.026.03.05.047.075l.019.031c.1.146.207.286.317.424l.078.095c.12.144.246.284.38.417l.052.05c.07.069.14.138.214.205.074.066.15.131.227.194l3.83 3.135a6.57 6.57 0 0 1-.45-.405l-.042-.042a6.697 6.697 0 0 1-.38-.42c-.028-.031-.053-.063-.08-.095a6.92 6.92 0 0 1-.334-.452l-.051-.08a6.506 6.506 0 0 1-.256-.424c-.023-.045-.049-.09-.073-.135a6.79 6.79 0 0 1-.252-.527c-.007-.014-.01-.028-.017-.042a7.768 7.768 0 0 1-.18-.485c-.04-.115-.074-.235-.108-.354a6.866 6.866 0 0 1-.165-.69c-.02-.11-.044-.216-.06-.327-.02-.13-.034-.262-.049-.394-.013-.113-.026-.225-.035-.339-.01-.134-.013-.272-.016-.408-.005-.125-.011-.25-.01-.377 0-.045.003-.09.002-.136.006-.203.015-.407.032-.616.002-.032.003-.065.006-.097.02-.23.05-.463.084-.7l.026-.158c.036-.229.08-.459.13-.692l.009-.041c.054-.244.12-.491.19-.74.014-.056.032-.112.048-.167a14.921 14.921 0 0 1 .582-1.626 17.342 17.342 0 0 1 1.361-2.584l.112-.172c.151-.234.306-.467.468-.694v-.003z" fill="#D8F1BF"/><g id="Group_31"><g id="Clip path group_11"><mask id="mask10_227_330" style="mask-type:luminance" maskUnits="userSpaceOnUse" x="72" y="25" width="8" height="11"><g id="l"><path id="Vector_122" d="M75.883 28.323c.246 3.092 1.522 5.687 3.658 7.435l-3.83-3.135c-2.123-1.74-3.396-4.315-3.653-7.384l1.411 1.138c.152.12.352.283.5.403.077.06.177.141.252.203l.981.79.234.188c.135.109.368.213.447.361z" fill="#fff"/></g></mask><g mask="url(#mask10_227_330)"><g id="Group_32"><g id="Group_33"><path id="Vector_123" d="M72.054 25.188l3.83 3.135a12.16 12.16 0 0 0 .647 3.1l-3.83-3.135a12.129 12.129 0 0 1-.647-3.1z" fill="#C8A756"/><path id="Vector_124" d="M72.702 28.288l3.83 3.135c.3.844.695 1.626 1.179 2.337l-3.83-3.135a10.22 10.22 0 0 1-1.18-2.337z" fill="#C5A555"/><path id="Vector_125" d="M73.881 30.626l3.83 3.134c.43.632.933 1.207 1.503 1.717l-3.83-3.135a9.537 9.537 0 0 1-1.503-1.716z" fill="#C2A354"/><path id="Vector_126" d="M75.383 32.342l3.83 3.135c.107.095.217.19.328.281l-3.83-3.135a9.038 9.038 0 0 1-.327-.282" fill="#BFA153"/></g></g></g></g></g><path id="Vector_127" d="M74.992 13.996c3.2-5.626 8.456-10.193 14.315-12.428l.299-.114a17.796 17.796 0 0 1 .91-.315c.258-.084.516-.166.775-.241a14.8 14.8 0 0 1 .484-.132l-.623 5.19c-4.54 1.184-9.093 4.729-11.654 9.231a17.454 17.454 0 0 0-.905 1.83c-2.816 6.658-.096 12.31 6.072 12.625 2.454.127 5.08-.622 7.533-1.974l1.093 4.507c-3.55 1.955-7.35 3.024-10.897 2.842-.393-.02-.772-.06-1.147-.112a6.364 6.364 0 0 1-.286-.038 15.48 15.48 0 0 1-.825-.152c-.144-.035-.287-.068-.431-.105a10.52 10.52 0 0 1-.412-.112c-4.287-1.288-6.876-4.761-7.239-9.312a6.487 6.487 0 0 1-.018-.301l-.01-.28c-.06-1.566.136-3.249.608-5.006.067-.243.13-.45.192-.66l.092-.305c.04-.125.088-.252.129-.377.062-.18.123-.363.191-.548.026-.066.055-.134.08-.203.09-.232.183-.468.28-.703.22-.518.413-.932.615-1.345l.085-.174c.08-.162.162-.322.249-.483.087-.16.175-.32.264-.479.06-.11.121-.218.182-.327h-.001z" fill="#EDFFD4"/><path id="Vector_128" d="M107.149 8.021l3.829 3.135-5.374 2.96-3.831-3.134 5.376-2.96z" fill="#2DBC42"/><g id="Group_34"><g id="Clip path group_12"><mask id="mask11_227_330" style="mask-type:luminance" maskUnits="userSpaceOnUse" x="106" y="7" width="5" height="5"><g id="m"><path id="Vector_129" d="M110.732 10.282c.094.285.178.577.25.875l-3.829-3.135c-.073-.298-.157-.59-.251-.875 1.149.94 2.998 1.936 3.83 3.134v.001z" fill="#fff"/></g></mask><g mask="url(#mask11_227_330)"><g id="Group_35"><g id="Group_36"><path id="Vector_130" d="M106.902 7.148l3.83 3.134c.393 1.194.6 2.503.609 3.9l-3.83-3.135c-.007-1.397-.215-2.707-.609-3.9z" fill="#613DCD"/></g></g></g></g></g><g id="Group_37"><g id="Clip path group_13"><mask id="mask12_227_330" style="mask-type:luminance" maskUnits="userSpaceOnUse" x="106" y="7" width="5" height="5"><g id="n"><path id="Vector_131" d="M110.732 10.282c.094.285.178.577.25.875l-3.829-3.135c-.073-.298-.157-.59-.251-.875 1.149.94 2.998 1.936 3.83 3.134v.001z" fill="#fff"/></g></mask><g mask="url(#mask12_227_330)"><g id="Group_38"><g id="Group_39"><path id="Vector_132" d="M106.902 7.148l3.83 3.134c.393 1.194.6 2.503.609 3.9l-3.83-3.135c-.007-1.397-.215-2.707-.609-3.9z" fill="#C9C4BB"/></g></g></g></g></g><g id="Group_40"><path id="Vector_133" d="M103.854 2.509l3.83 3.134c1.403 1.15 2.433 2.705 3.048 4.638.091.284.174.576.246.874l-3.829-3.134c-.073-.299-.155-.59-.247-.874-.615-1.935-1.645-3.489-3.048-4.638z" fill="#96A2BD"/><g id="Clip path group_14"><mask id="mask13_227_330" style="mask-type:luminance" maskUnits="userSpaceOnUse" x="103" y="2" width="8" height="10"><g id="o"><path id="Vector_134" d="M103.854 2.509l3.83 3.134c1.403 1.15 2.433 2.705 3.048 4.638.091.284.174.576.246.874l-3.829-3.134c-.073-.299-.155-.59-.247-.874-.615-1.935-1.645-3.489-3.048-4.638z" fill="#fff"/></g></mask><g mask="url(#mask13_227_330)"><g id="Group_41"><g id="Group_42"><path id="Vector_135" d="M103.854 2.509l3.83 3.134c.105.087.208.175.308.265l-3.829-3.135a13.42 13.42 0 0 0-.309-.264z" fill="#1F70BE"/><path id="Vector_136" d="M104.163 2.773l3.829 3.135a8.988 8.988 0 0 1 1.425 1.63l-3.83-3.134a9.085 9.085 0 0 0-1.424-1.631z" fill="#3CB80F"/><path id="Vector_137" d="M105.587 4.404l3.83 3.135c.483.71.883 1.503 1.193 2.379l-3.83-3.135a10.31 10.31 0 0 0-1.193-2.378" fill="#3CB80F"/><path id="Vector_138" d="M106.781 6.782l3.829 3.135a12.344 12.344 0 0 1 .368 1.238l-3.828-3.134a13.383 13.383 0 0 0-.369-1.24" fill="#3CB80F"/></g></g></g></g></g><path id="Vector_139" d="M105.904 18.423l3.829 3.135-4.978-.259-3.829-3.135 4.978.259z" fill="#BB8F37"/><g id="Group_43"><g id="Clip path group_15"><mask id="mask14_227_330" style="mask-type:luminance" maskUnits="userSpaceOnUse" x="105" y="8" width="7" height="15"><g id="p"><path id="Vector_140" d="M109.737 21.555c-.14.33-.288.657-.442.98l-3.83-3.136c.155-.32.303-.648.442-.979 1.619-3.828 1.971-7.425 1.247-10.398 1.275 1.046 2.553 2.09 3.828 3.135.724 2.974.374 6.57-1.245 10.398z" fill="#fff"/></g></mask><g mask="url(#mask14_227_330)"><g id="Group_44"><g id="Group_45"><path id="Vector_141" d="M106.902 7.148l3.83 3.134c.393 1.194.6 2.503.609 3.9l-3.83-3.135c-.007-1.397-.215-2.707-.609-3.9z" fill="#C9C9C9"/><path id="Vector_142" d="M107.511 11.047l3.83 3.135c.011 1.902-.351 3.966-1.116 6.119l-3.83-3.135c.767-2.153 1.126-4.217 1.117-6.119" fill="#CCC"/><path id="Vector_143" d="M106.395 17.166l3.83 3.135c-.149.415-.311.833-.489 1.255-.14.33-.288.657-.442.98l-3.829-3.136a23.248 23.248 0 0 0 .93-2.234" fill="#C9C9C9"/></g></g></g></g></g><path id="Vector_144" d="M109.737 21.555c-.14.33-.288.657-.442.98l-3.83-3.136c.155-.32.303-.648.442-.979 1.619-3.828 1.971-7.425 1.247-10.398 1.275 1.046 2.553 2.09 3.828 3.135.724 2.974.374 6.57-1.245 10.398z" fill="#D3A105"/><g id="Clip path group_16"><mask id="mask15_227_330" style="mask-type:luminance" maskUnits="userSpaceOnUse" x="105" y="8" width="7" height="15"><g id="q"><path id="Vector_145" d="M109.737 21.555c-.14.33-.288.657-.442.98l-3.83-3.136c.155-.32.303-.648.442-.979 1.619-3.828 1.971-7.425 1.247-10.398 1.275 1.046 2.553 2.09 3.828 3.135.724 2.974.374 6.57-1.245 10.398z" fill="#fff"/></g></mask><g mask="url(#mask15_227_330)"><g id="Group_46" fill="#F4901E"><path id="Vector_146" d="M106.902 7.148l3.83 3.134c.393 1.194.6 2.503.609 3.9l-3.83-3.135c-.007-1.397-.215-2.707-.609-3.9z"/><path id="Vector_147" d="M107.511 11.047l3.83 3.135c.011 1.902-.351 3.966-1.116 6.119l-3.83-3.135c.767-2.153 1.126-4.217 1.117-6.119"/><path id="Vector_148" d="M106.395 17.166l3.83 3.135c-.149.415-.311.833-.489 1.255-.14.33-.288.657-.442.98l-3.829-3.136a23.248 23.248 0 0 0 .93-2.234"/></g></g></g><path id="Vector_149" d="M101.773 10.982l5.376-2.96c-.073-.3-.155-.591-.247-.874 1.033 3.13.787 7.062-.995 11.273-.139.33-.287.658-.442.98l.019-.042c.147-.31.285-.62.42-.935l-4.978-.26c1.118-2.644 1.348-5.125.848-7.182h-.001z" fill="#FFC700"/><path id="Vector_150" d="M97.124.167c.297.015.58.041.86.07 4.543.482 7.633 2.871 8.918 6.91.092.284.174.576.247.874l-5.376 2.96c-.757-3.116-3.206-5.249-6.92-5.438l2.27-5.376z" fill="#3F6212"/><path id="Vector_152" d="M92.198 27.669l3.83 3.134 1.092 4.507-3.83-3.135-1.092-4.506z" fill="#92A4B7"/><path id="Vector_153" d="M82.393 35.018c-.392-.02-.772-.06-1.146-.112-.097-.01-.192-.025-.287-.038a15.58 15.58 0 0 1-.824-.153c-.144-.034-.288-.068-.432-.104a10.346 10.346 0 0 1-.412-.113l-.004-.003c-.071-.02-.14-.045-.21-.067-1.283-.414-2.411-1.024-3.365-1.804.216.177.435.354.651.533-.079-.053-.156-.107-.233-.161-.043-.032-.088-.06-.13-.093a7.08 7.08 0 0 1-.357-.275c-.01-.009-.021-.016-.033-.025l.001.002v-.002l3.83 3.135.036.03c.116.092.231.182.35.27.05.037.104.072.156.11l.25.173c.059.038.12.074.18.112.082.05.163.102.245.151.065.038.13.073.196.108a7.2 7.2 0 0 0 .247.136c.068.035.138.068.207.103.084.04.167.082.253.122.072.033.145.063.217.095.087.037.172.074.26.11.075.03.152.058.228.086a8.225 8.225 0 0 0 .505.176c.064.022.127.044.192.064l.082.025.076.024c.135.04.274.077.413.112.142.037.286.07.43.105.269.055.545.109.826.152.095.014.19.027.286.038a13.6 13.6 0 0 0 1.146.112c3.546.182 7.349-.888 10.897-2.843l-3.83-3.135c-3.55 1.956-7.35 3.024-10.896 2.843l-.001.001z" fill="#C8DFB1"/><g id="Group_47"><g id="Clip path group_17"><mask id="mask16_227_330" style="mask-type:luminance" maskUnits="userSpaceOnUse" x="105" y="20" width="4" height="4"><g id="r"><path id="Vector_154" d="M105.118 20.1l3.829 3.136-.057.114-3.83-3.135.058-.114z" fill="#fff"/></g></mask><g mask="url(#mask16_227_330)"><g id="Group_48"><g id="Group_49"><path id="Vector_155" d="M105.118 20.1l3.829 3.136-.057.114-3.83-3.135.058-.114z" fill="#C8A756"/></g></g></g></g></g><g id="Group_50"><g id="Clip path group_18"><mask id="mask17_227_330" style="mask-type:luminance" maskUnits="userSpaceOnUse" x="105" y="20" width="4" height="4"><g id="s"><path id="Vector_156" d="M105.118 20.1l3.829 3.136-.057.114-3.83-3.135.058-.114z" fill="#fff"/></g></mask><g mask="url(#mask17_227_330)"><g id="Group_51"><g id="Group_52"><path id="Vector_157" d="M105.118 20.1l3.829 3.136-.057.114-3.83-3.135.058-.114z" fill="#BBC5C9"/></g></g></g></g></g><g id="Group_53"><g id="Clip path group_19"><mask id="mask18_227_330" style="mask-type:luminance" maskUnits="userSpaceOnUse" x="93" y="19" width="17" height="17"><g id="t"><path id="Vector_158" d="M108.259 24.337c-.48.888-1.226 2.022-1.833 2.839-.64.863-1.544 1.99-2.317 2.752-.805.793-1.885 1.853-2.788 2.548-.461.355-1.071.835-1.555 1.163-.008.005-1.542 1.005-1.907 1.235-.313.197-.62.37-.735.434l-3.83-3.134c.342-.19.676-.382 1.007-.58 4.324-2.598 7.814-6.148 10.196-10.337.195-.344.383-.692.563-1.043l.058-.114c.118-.232.237-.466.347-.702l3.744 3.065a7.849 7.849 0 0 1-.39.748c-.035.057-.458.915-.463.924-.029.06-.064.142-.098.202h.001z" fill="#fff"/></g></mask><g mask="url(#mask18_227_330)"><g id="Group_54"><g id="Group_55"><path id="Vector_159" d="M105.465 19.4l3.829 3.135c-.109.235-.228.47-.347.701l-.058.114a26.656 26.656 0 0 1-1.091 1.93l-3.83-3.135a27.608 27.608 0 0 0 1.091-1.93l.058-.115c.118-.232.237-.465.347-.701" fill="#3F6212"/><path id="Vector_160" d="M103.97 22.145l3.829 3.136a27.578 27.578 0 0 1-2.067 2.896l-3.829-3.134a27.718 27.718 0 0 0 2.067-2.898z" fill="#3F6212"/><path id="Vector_161" d="M101.902 25.043l3.829 3.134a27.755 27.755 0 0 1-2.121 2.326l-3.83-3.135a28.167 28.167 0 0 0 2.122-2.325z" fill="#3F6212"/><path id="Vector_162" d="M99.78 27.368l3.83 3.135a28.719 28.719 0 0 1-2.451 2.146l-3.83-3.135a28.94 28.94 0 0 0 2.452-2.146z" fill="#3F6212"/><path id="Vector_163" d="M97.33 29.513l3.829 3.136a29.744 29.744 0 0 1-3.328 2.257L94 31.77l.3-.177a30.095 30.095 0 0 0 3.029-2.08z" fill="#3F6212"/><path id="Vector_164" d="M94.001 31.771l3.83 3.136c-.233.136-.469.27-.708.402l-3.83-3.135c.24-.132.475-.266.708-.402z" fill="#36BC9F"/></g></g></g></g></g><g id="Group_56"><g id="Clip path group_20"><mask id="mask19_227_330" style="mask-type:luminance" maskUnits="userSpaceOnUse" x="93" y="31" width="6" height="5"><g id="u"><path id="Vector_165" d="M98.131 34.73c-.332.201-.67.392-1.007.579l-3.83-3.135c.338-.187.675-.379 1.007-.58 1.15.941 2.68 2.195 3.83 3.135z" fill="#fff"/></g></mask><g mask="url(#mask19_227_330)"><g id="Group_57"><g id="Group_58"><path id="Vector_166" d="M94.3 31.594l3.831 3.135-.304.18-3.829-3.134.303-.181z" fill="#57606B"/><path id="Vector_167" d="M93.998 31.775l3.829 3.134a26.6 26.6 0 0 1-.703.399l-3.83-3.134c.235-.13.471-.263.704-.4z" fill="#545D69"/></g></g></g></g></g><path id="Vector_168" d="M97.242 35.243l-.119.065-3.83-3.134c.338-.187.676-.38 1.007-.58 1.15.94 2.68 2.194 3.83 3.135-.21.125-.478.285-.888.514z" fill="#3F6212"/><g id="Clip path group_21"><mask id="mask20_227_330" style="mask-type:luminance" maskUnits="userSpaceOnUse" x="93" y="31" width="6" height="5"><g id="v"><path id="Vector_169" d="M97.242 35.243l-.119.065-3.83-3.134c.338-.187.676-.38 1.007-.58 1.15.94 2.68 2.194 3.83 3.135-.21.125-.478.285-.888.514z" fill="#fff"/></g></mask><g mask="url(#mask20_227_330)"><g id="Group_59"><g id="Group_60" fill="#3F6212"><path id="Vector_170" d="M94.3 31.594l3.831 3.135-.304.18-3.829-3.134.303-.181z"/><path id="Vector_171" d="M93.998 31.775l3.829 3.134a26.6 26.6 0 0 1-.703.399l-3.83-3.134c.235-.13.471-.263.704-.4z"/></g></g></g></g><path id="Vector_172" d="M92.198 27.669c3.138-1.728 5.991-4.455 7.823-7.675.338-.593.64-1.203.903-1.825l4.981.252c-.136.318-.277.628-.421.938l-.019.041c-.109.236-.228.47-.347.701l-.057.115a29.96 29.96 0 0 1-.564 1.043c-2.382 4.189-5.872 7.739-10.195 10.337-.332.199-.665.391-1.007.58l-1.096-4.506-.001-.002z" fill="#3CB80F"/><path id="Vector_173" d="M105.905 18.42l3.829 3.135c-.133.318-.276.628-.42.938l-3.829-3.135c.144-.31.285-.62.42-.938z" fill="#3BCAAB"/><g id="Clip path group_22"><mask id="mask21_227_330" style="mask-type:luminance" maskUnits="userSpaceOnUse" x="105" y="18" width="5" height="5"><g id="w"><path id="Vector_174" d="M105.905 18.42l3.829 3.135c-.133.318-.276.628-.42.938l-3.829-3.135c.144-.31.285-.62.42-.938z" fill="#fff"/></g></mask><g mask="url(#mask21_227_330)"><g id="Group_61"><g id="Group_62"><path id="Vector_175" d="M105.905 18.42l3.829 3.135c-.133.318-.276.628-.42.938l-3.829-3.135c.144-.31.285-.62.42-.938" fill="#3BCAAB"/></g></g></g></g><path id="Vector_176" d="M105.904 18.423l3.828 3.135a22.38 22.38 0 0 1-.419.935l-3.829-3.135c.146-.31.285-.62.42-.935z" fill="#3F6212"/><g id="Clip path group_23"><mask id="mask22_227_330" style="mask-type:luminance" maskUnits="userSpaceOnUse" x="105" y="18" width="5" height="5"><g id="x"><path id="Vector_177" d="M105.904 18.423l3.828 3.135a22.38 22.38 0 0 1-.419.935l-3.829-3.135c.146-.31.285-.62.42-.935z" fill="#fff"/></g></mask><g mask="url(#mask22_227_330)"><g id="Group_63"><path id="Vector_178" d="M105.904 18.423l3.828 3.135a22.38 22.38 0 0 1-.419.935l-3.829-3.135c.146-.31.285-.62.42-.935z" fill="#3F6212"/></g></g></g><g id="Group_64" fill="#3F6212"><path id="Vector_179" d="M105.465 19.4l3.829 3.135c-.109.235-.228.47-.347.701l-.058.114a26.656 26.656 0 0 1-1.091 1.93l-3.83-3.135a27.608 27.608 0 0 0 1.091-1.93l.058-.115c.118-.232.237-.465.347-.701"/><path id="Vector_180" d="M103.97 22.145l3.829 3.136a27.578 27.578 0 0 1-2.067 2.896l-3.829-3.134a27.718 27.718 0 0 0 2.067-2.898z"/><path id="Vector_181" d="M101.902 25.043l3.829 3.134a27.741 27.741 0 0 1-2.121 2.326l-3.83-3.135a28.167 28.167 0 0 0 2.122-2.325z"/><path id="Vector_182" d="M99.78 27.368l3.83 3.135a28.719 28.719 0 0 1-2.451 2.146l-3.83-3.135a28.94 28.94 0 0 0 2.452-2.146z"/><path id="Vector_183" d="M97.33 29.513l3.829 3.136a29.76 29.76 0 0 1-3.328 2.257L94 31.77l.3-.177a30.095 30.095 0 0 0 3.029-2.08z"/><path id="Vector_184" d="M94.001 31.771l3.83 3.136c-.233.136-.469.27-.708.402l-3.83-3.135c.24-.132.475-.266.708-.402z"/></g></g><path id="Vector_185" d="M53.734 129.228h1.474c.484 0 .88-.464.88-1.033v-11.004c0-.566-.396-1.032-.88-1.032h-1.474v-2.063h93.617c1.463 0 2.648 1.388 2.648 3.096v11.003c0 1.709-1.186 3.096-2.648 3.096H53.734v-2.063z" fill="#6FB713"/><path id="Vector_186" d="M53.734 129.228h1.474c.484 0 .88-.464.88-1.033v-11.004c0-.566-.396-1.032-.88-1.032h-1.474v-2.063h48.575v17.195H53.734v-2.063z" fill="#2A410C"/><path id="Vector_187" d="M56.089 128.195v-11.004c0-.566-.397-1.032-.881-1.032h92.143c.484 0 .882.466.882 1.032v11.004c0 .569-.397 1.033-.882 1.033H55.208c.484 0 .88-.464.88-1.033z" fill="#fff"/><path id="Vector_188" d="M56.089 128.195v-11.004c0-.566-.397-1.032-.881-1.032h48.866c.489 0 .884.466.884 1.032v11.004c0 .569-.395 1.033-.884 1.033H55.208c.484 0 .88-.464.88-1.033z" fill="#D1F498"/><path id="Vector_189" d="M146.629 112.31h-1.257c-.413 0-.751-.366-.751-.813v-8.679c0-.447.338-.817.751-.817h1.257v-1.624H66.81c-1.248 0-2.257 1.095-2.257 2.441v8.679c0 1.347 1.01 2.442 2.257 2.442h79.819v-1.629z" fill="#AEEB69"/><path id="Vector_190" d="M146.629 112.31h-1.257c-.413 0-.751-.366-.751-.813v-8.679c0-.447.338-.817.751-.817h1.257v-1.624h-41.414v13.562h41.414v-1.629z" fill="#BEF264"/><path id="Vector_191" d="M144.621 111.497v-8.679c0-.447.338-.817.751-.817H66.81c-.414 0-.752.37-.752.817v8.679c0 .447.338.813.752.813h78.562c-.413 0-.751-.366-.751-.813z" fill="#D1F498"/><path id="Vector_192" d="M144.621 111.497v-8.679c0-.447.338-.817.751-.817h-41.664c-.416 0-.752.37-.752.817v8.679c0 .447.336.813.752.813h41.664c-.413 0-.751-.366-.751-.813z" fill="#E4EEF3"/><path id="Vector_193" d="M59.863 91.684c.412 2.16.634-3.667.634-1.286 0 2.682-.283 5.256-.8 7.649h62.619v-6.363H59.863z" fill="#D1F498"/><path id="Vector_194" opacity=".2" d="M59.863 91.684c.095.498.179 1.003.254 1.513H116.6v-1.513H59.863z" fill="#2E95D1"/><path id="Vector_195" d="M124.819 89.415H59.188c-.395 0-.714.29-.714.647v1.622h30.133v6.363H58.474v1.622c0 .357.318.649.714.649h65.631c.394 0 .715-.292.715-.649v-9.607c0-.357-.321-.648-.715-.648v.001z" fill="#FA0"/><path id="Vector_196" d="M141.017 89.415h-50.74c.393 0 .714.29.714.647v9.608c0 .357-.321.648-.715.648h50.741c.393 0 .715-.291.715-.648v-9.608c0-.356-.322-.647-.715-.647z" fill="#FEC12F"/><path id="Vector_197" d="M144.095 133.497c-.412 2.161-.634-3.668-.634-1.286 0 2.683.283 10.053.801 12.445h-62.62v-11.159h62.453z" fill="#F7F8FC"/><path id="Vector_198" opacity=".2" d="M144.095 133.497a34.571 34.571 0 0 0-.253 1.513H87.36v-1.513h56.735z" fill="#2E95D1"/><path id="Vector_199" d="M79.141 131.227h65.629c.394 0 .715.291.715.649v1.621h-30.134v11.159h30.134v1.62c0 .358-.321.65-.715.65H79.141c-.395 0-.715-.292-.715-.65v-14.401c0-.358.32-.648.715-.648z" fill="#FF3D0D"/><path id="Vector_200" d="M62.941 131.227h50.741c-.395 0-.714.291-.714.649v14.401c0 .358.319.65.714.65h-50.74c-.395 0-.715-.292-.715-.65v-14.401c0-.358.32-.649.714-.649z" fill="#FF3D0D"/><path id="Vector_201" d="M62.941 131.227h50.741c-.395 0-.714.291-.714.649v2.162H62.226v-2.162c0-.358.321-.649.715-.649z" fill="#C9300A"/><path id="Vector_202" d="M68.902 118.271l3.084-1.92 3.085 1.92v-9.627h-6.169v9.627z" fill="#FF3D0D"/></g><defs><clipPath id="clip0_227_330"><path fill="#fff" d="M0 .144h150v150.305H0z"/></clipPath></defs></svg>