<svg xmlns="http://www.w3.org/2000/svg" viewBox="0 0 120 120"><path d="M60 2.034A57.966 57.966 0 1 1 2.034 60 58.071 58.071 0 0 1 60 2.034M60 0a60 60 0 1 0 60 60A59.98 59.98 0 0 0 60 0z" fill="#fff"/><path d="M37.424 90.2a.772.772 0 0 1-.407-.1.89.89 0 0 1-.61-.916l-.61-13.22-13.729-.61a1.167 1.167 0 0 1-.915-.61.952.952 0 0 1 .2-1.119l13.122-13.32a1.007 1.007 0 1 1 1.425 1.424l-11.491 11.8 12.305.611a1.09 1.09 0 0 1 1.017 1.017l.61 11.8 10.574-10.889a1.007 1.007 0 0 1 1.424 1.424L38.136 89.9a.922.922 0 0 1-.712.3zm45.559 0a.774.774 0 0 0 .407-.1.89.89 0 0 0 .61-.916l.61-13.22 13.729-.61a1.167 1.167 0 0 0 .915-.61.952.952 0 0 0-.2-1.119l-13.223-13.32a1.007 1.007 0 1 0-1.424 1.424L95.9 73.525l-12.3.611a1.09 1.09 0 0 0-1.017 1.017l-.61 11.8L71.39 75.864a1.007 1.007 0 1 0-1.424 1.424L82.271 89.9a.922.922 0 0 0 .712.3z" fill="#fff"/><path d="M84.61 53.186l-4.779-5.694L84 41.085l-7.22-2.339.2-7.831-7.83.916-2.845-6.611-6.505 4.068-6.512-4.068-2.847 6.611-7.831-.916.2 7.831-7.322 2.339 4.169 6.407-4.78 5.694 6.407 4.272-2.233 7.322h7.932l.509 7.22 7.525-2.339 4.271 4.576.407.407.407-.407 4.271-4.576L71.9 72l.509-7.22h7.932L78.2 57.356zm-14.034 9.458l-.508 6.509-6.3-2.034-4.068 4.373-4.068-4.373-6.3 2.034-.508-6.509H41.7l1.83-6.1-5.694-3.864 4.264-5.087-3.56-5.39 6.2-2.034-.1-6.915 7.017.814 2.542-5.8 4.882 3.051.712.407.711-.407 4.882-3.051 2.542 5.8 7.017-.814-.2 7.017 6.2 2.034L77.39 47.7l4.271 5.085-5.7 3.864 1.831 6.1h-7.216z" fill="#fff"/></svg>