<svg xmlns="http://www.w3.org/2000/svg" viewBox="0 0 120 120"><path d="M64.068 41.7l2.44 2.339-6.3 4.881-.61-.3-8.034-4.373 1.933-1.932-10.683-10.79c0 .916-23.9 24.2-23.9 24.2l10.578 10.58 1.83-1.83 29.8 29.288L81.864 73.22l-3.254-3.152 6.61-7.627 3.153 3.051L98.949 54.61c-.915 0-24.508-23.593-24.508-23.593zm-42.2 13.932c2.136-2.135 6.305-6.2 10.475-10.271 5.9-5.9 9.051-9.051 10.678-10.881l7.725 7.72-21.254 21.156zm57.149 17.487l-3.763 3.762-6.813-7.118-1.424 1.423 6.814 7.119-2.95 2.949-6.712-7.017-1.423 1.424 6.813 7.119-3.152 3.152-6.707-7.017-1.424 1.424 6.712 7.017-3.661 3.559-28.378-27.864 17.288-17.288 8.441 4.678.508.2-8.542 11.19-1.119 1.525 1.424 1.22 3.865 3.458 1.423 1.322 1.322-1.322L65.593 60zm-1.729-4.577L65.593 57.051l-9.457 9.457-3.865-3.457 10.068-13.119 5.8-4.373L84 61.017zm7.729-24.3c5.9 5.8 9.152 8.848 10.983 10.475l-7.627 7.83L67.017 41.7l7.627-7.831c2.034 2.131 6.203 6.3 10.373 10.368z" fill="#fff"/><path d="M60 2.034A57.966 57.966 0 1 1 2.034 60 58.071 58.071 0 0 1 60 2.034M60 0a60 60 0 1 0 60 60A59.98 59.98 0 0 0 60 0z" fill="#fff"/></svg>