<svg xmlns="http://www.w3.org/2000/svg" viewBox="0 0 120 120"><path d="M60 2.034A57.966 57.966 0 1 1 2.034 60 58.071 58.071 0 0 1 60 2.034M60 0a60 60 0 1 0 60 60A59.98 59.98 0 0 0 60 0z" fill="#fff"/><path d="M67.22 82.983H52.373a1.017 1.017 0 1 1 0-2.034h14.746a.961.961 0 0 1 1.017 1.017.939.939 0 0 1-.916 1.017zm8.441 7.217H44.339a1.017 1.017 0 0 1 0-2.034h31.322a1.017 1.017 0 0 1 0 2.034zm9.864-52.268a.96.96 0 0 0-1.118-.915 1.025 1.025 0 0 0-.915 1.119 11.4 11.4 0 0 1 0 1.932c-4.373-.915-18.712-2.848-22.272-3.254v-6a1.017 1.017 0 1 0-2.034 0v6c-3.661.508-17.8 2.339-22.169 3.254a5.678 5.678 0 0 1 0-1.932c.1-.509-.407-1.017-.915-1.119a1.107 1.107 0 0 0-1.119.915c-.3 2.949.61 3.865.915 4.17l.407.2.407-.1c2.746-.711 18.2-2.745 22.474-3.356v37.629a1.017 1.017 0 0 0 2.034 0V38.847c4.17.509 19.729 2.645 22.577 3.356l.406.1.407-.2c.407-.303 1.221-1.222.915-4.171z" fill="#fff"/><path d="M43.627 46.169a1.047 1.047 0 0 0-1.83 1.017c6.711 12.2 6.2 17.492 4.474 19.729-1.322 1.831-3.864 2.136-5.593 2.238h-3.864c-1.729-.1-4.272-.407-5.594-2.238-1.627-2.237-2.237-7.525 4.475-19.729a1.047 1.047 0 0 0-1.831-1.017c-5.8 10.577-7.22 17.9-4.372 21.967 1.83 2.542 5.084 3.05 7.22 3.05h3.864c2.136 0 5.288-.508 7.221-3.05 3.152-4.068 1.728-11.39-4.17-21.967zm42.407 0a1.047 1.047 0 0 0-1.834 1.017c6.712 12.2 6.2 17.492 4.475 19.729-1.322 1.831-3.864 2.136-5.593 2.238H79.22c-1.728-.1-4.271-.407-5.593-2.238C72 64.678 71.39 59.39 78.1 47.186a1.047 1.047 0 0 0-1.831-1.017c-5.8 10.577-7.22 17.9-4.373 21.967 1.831 2.542 5.085 3.05 7.221 3.05h3.864c2.136 0 5.288-.508 7.22-3.05 3.053-4.068 1.63-11.39-4.167-21.967z" fill="#fff"/></svg>