<svg viewBox="0 0 150 148" fill="none" xmlns="http://www.w3.org/2000/svg"><g id="Visibility" clip-path="url(#clip0_227_135)"><path id="Vector" d="M55.855 1.174c22.15-3.868 44.761 2.27 61.468 11.847 16.886 9.778 27.866 22.993 30.893 37.864 3.059 15.015-1.878 29.95-10.159 45-8.447 14.847-20.236 29.805-34.688 40.085-27.73 21.287-64.484 9.16-87.174-34.547C-6.47 58.001 10.123 7.721 55.855 1.174z" fill="#EAF4FE"/><path id="Vector_2" d="M94.896 55.15c5.604-6.838 8.213-15.435 7.344-24.217-.868-8.796-5.12-16.737-11.983-22.341C83.423 3.014 74.837.418 66.085 1.28c-18.139 1.795-31.447 18.015-29.65 36.156.871 8.807 5.136 16.745 11.997 22.355 6.831 5.581 15.409 8.17 24.16 7.309 8.776-.87 16.7-5.113 22.304-11.95zm-42.552-.142c-5.595-4.568-9.051-11.024-9.761-18.177-1.462-14.759 9.35-27.947 24.108-29.401 7.118-.702 14.101 1.406 19.652 5.947 5.587 4.565 9.046 11.016 9.757 18.161.707 7.145-1.413 14.136-5.982 19.697-4.555 5.56-11.002 9.013-18.136 9.723-7.108.702-14.087-1.407-19.638-5.95z" fill="#30363D"/><path id="Vector_3" opacity=".2" d="M86.283 13.45c-5.532-4.527-12.488-6.63-19.582-5.93-14.704 1.447-25.488 14.593-24.025 29.3.701 7.13 4.153 13.562 9.726 18.118 5.534 4.531 12.481 6.621 19.573 5.924 7.11-.7 13.53-4.144 18.074-9.688 4.553-5.54 6.663-12.508 5.96-19.624-.704-7.128-4.155-13.56-9.726-18.1z" fill="#fff"/><path id="Vector_4" opacity=".2" d="M47.068 24.137c4.39-5.358 10.596-8.681 17.466-9.358 6.863-.678 13.586 1.359 18.937 5.73 5.366 4.387 8.699 10.584 9.392 17.455l.004.037a25.743 25.743 0 0 1-.42 7.882 25.71 25.71 0 0 0 2.672-14.25l-.006-.034c-.69-6.875-4.03-13.076-9.4-17.46-5.345-4.368-12.07-6.404-18.928-5.729-6.874.679-13.074 4-17.465 9.358-2.69 3.274-4.499 7.061-5.335 11.088a26.12 26.12 0 0 1 3.083-4.719z" fill="#fff"/><path id="Vector_5" d="M41.058 36.98c-1.546-15.598 9.886-29.54 25.48-31.075 7.529-.74 14.903 1.492 20.772 6.288 5.904 4.824 9.562 11.64 10.313 19.197l2.759-.27c-.003-.023-.008-.04-.006-.063-.833-8.278-4.846-15.743-11.304-21.012-6.439-5.267-14.539-7.713-22.798-6.9-17.116 1.69-29.666 16.989-27.973 34.11l2.762-.268-.004-.008z" fill="#474F59"/><path id="Vector_6" d="M47.998 66.797c1.617-1.92 3.237-3.837 4.858-5.764.735-.896 1.057-2.006.944-3.055a29.598 29.598 0 0 1-2.382-1.767 30.23 30.23 0 0 1-2.283-2.07 4.157 4.157 0 0 0-2.809 1.518c-1.626 1.923-3.252 3.854-4.886 5.79-1.53 1.86-.757 3.796 1.117 5.29l.01.011c1.86 1.519 3.925 1.899 5.431.048v-.001z" fill="#30363D"/><path id="Vector_7" d="M39.815 59.53L10.979 94.676l10.44 8.566 28.836-35.148-10.44-8.566z" fill="#FFC700"/><path id="Vector_8" d="M45.104 63.867L16.273 99.02l4.313 3.538 28.832-35.153-4.314-3.538z" fill="#D8A400"/><path id="Vector_9" d="M39.815 59.531l-2.055 2.506L48.202 70.6l2.055-2.506-10.442-8.564z" fill="#E5E8EC"/><path id="Vector_10" d="M44.198 64.088l-1.413 1.723 4.613 3.783 1.413-1.723-4.613-3.783z" fill="#CDD5D7"/><path id="Vector_11" d="M19.363 105.745c-5.243.52-9.916-3.314-10.438-8.567l2.054-2.5c3.483 2.856 6.957 5.708 10.44 8.565-.684.834-1.37 1.666-2.056 2.502z" fill="#E5E8EC"/><path id="Vector_12" d="M15.578 98.975l-1.765 2.152 4.61 3.782 1.765-2.152-4.61-3.782z" fill="#CDD5D7"/><path id="Vector_13" d="M30.933 110.656H16.357L0 132.505h14.577l16.356-21.849z" fill="url(#paint0_linear_227_135)"/><path id="Vector_14" d="M46.975 132.551l-16.042-21.895H16.357l16.04 21.895h14.578z" fill="url(#paint1_linear_227_135)"/><path id="Vector_15" d="M46.988 132.844l28.99-40.476H61.4l-28.987 40.476h14.576z" fill="url(#paint2_linear_227_135)"/><path id="Vector_16" d="M101.364 127.989L75.383 92.368H60.808l25.98 35.621h14.576z" fill="url(#paint3_linear_227_135)"/><path id="Vector_17" d="M150 43.117L115.819 72.42h9.764l-39.256 55.569h14.578l39.258-55.57h9.492L150 43.118z" fill="url(#paint4_linear_227_135)"/><path id="Vector_18" d="M68.337 31.49s.093.838 1.784 1.236c1.694.398 4.03-1.23 4.234-5.128.205-3.898 2.743-3.3 2.87-6.265.125-2.963-1.19-4.905-3.462-3.534-2.273 1.37-3.95 1.52-3.322 2.62.626 1.1 3.054 1.534 3.085.182.032-1.355-5.583-8.16-9.648-6.896-2.742.851-3.244 1.685-2.398 4.334.616 1.929.453 3.645-2.15 4.53-3.348 1.139-2.33 2.344-1.238 3.245 1.613 1.334 4.23 2.22 3.478 4.084-.754 1.864 3.6 2.344 6.767 1.591v.001z" fill="#17203F"/><path id="Vector_19" d="M70.775 34.465c1.932.991.272 1 .14 1.14-.79.845-8.8-.826-9.232-2.018-.073-.2 3.755-.506 3.784-.65.344-1.664.53-3.08.185-4.99.03-.145.15-.254.265-.244.708.068 1.42.12 2.13.188.116.013 1.487.412 1.134 1.059-.273 1.82-.45 4.465 1.594 5.515z" fill="#EC9568"/><path id="Vector_20" d="M69.978 29.385c.05-.058.095-.12.142-.18.013-.019.028-.037.043-.056.058-.078.115-.157.17-.24.013-.02.03-.043.043-.065.042-.062.081-.125.124-.189l.065-.108.097-.164.066-.116a4.75 4.75 0 0 0 .12-.222c.03-.057.058-.115.09-.174.025-.051.052-.104.077-.158l.075-.162c.022-.046.042-.094.064-.142l.051-.113.002-.006c.281-.658.86-3.961.72-5.643-.018-.204-.25-.631-.447-.436-3.63 3.63-6.441-1.685-6.329 3.274v.004c-.002.013-.03.429-.035.621-.003.018-.003.034-.003.05a11.09 11.09 0 0 0-.005.575v.034a12.826 12.826 0 0 0 .025.586c.156 2.364 1.018 4.117 2.33 4.349.766.135 1.566-.267 2.29-1.055v-.001c.007-.006.01-.013.016-.02.056-.059.11-.122.162-.185.016-.02.033-.038.048-.058z" fill="#F7B68B"/><path id="Vector_21" d="M92.149 41.817s.245.3.49.12c.402-.296.898-1.166 1.062-1.482.183-.353.765-2.161.765-2.161s-.598.376-.834 1.102c-.346 1.06-1.483 2.421-1.483 2.421z" fill="#EC9568"/><path id="Vector_22" d="M92.29 41.598c.557-.45.75-1.258.745-2.262-.002-.951.492-1.32.492-1.32 0-.002.067.613-.085 2.093-.042.415-.115.866-.302 1.234-.568 1.11-2.285 1.412-.85.255z" fill="#EC9568"/><path id="Vector_23" d="M70.861 141.162s-.746-.318-2.803-.709c-1.206-.229-2.122-.222-2.552-.674-.716-.746-.258-3.099-.609-3.018-1.704.39-2.344 4.437-1.35 4.935.996.497 6.606.319 7.067.283.462-.036.39-.923.248-.816v-.001z" fill="#F7B68B"/><path id="Vector_24" d="M58.123 100.934c.142-1.02.288-2.027.442-3.019.678-1.502 1.314-2.327 1.86-2.286 2.065.16 4.618 7.921-.044 27.708-.235.994-2.927 18.066-3.032 17.673-1.27-4.873-1.314-24.935.774-40.076z" fill="#F7B68B"/><path id="Vector_25" d="M60.605 66.85c1.626-.265 1.64.673 2.76 3.022C65.56 74.48 66.72 81.278 65.777 88.5c-1.103 8.459-3.424 15.824-6.152 20.443-1.567-3.979-2.301-8.756-2.886-14.046-1.825-16.464-1.13-27.234 3.866-28.048v.001z" fill="#F7B68B"/><path id="Vector_26" d="M62.244 85.712a24.071 24.071 0 0 0-6.32-.728c.129 2.776.378 5.822.728 9.1 2.422-2.593 7.108-1.172 8.166.117.379-1.828.703-3.734.96-5.702.075-.568.131-1.13.179-1.692a49.505 49.505 0 0 0-3.713-1.095z" fill="#EC9568"/><path id="Vector_27" d="M51.188 44.94c2.412 2.2 4.592 12.223 4.592 12.223s-.284 3.974-5.638-8.576c-1.607-3.77.452-4.19 1.046-3.648z" fill="#F7B68B"/><path id="Vector_28" d="M76.108 43.23c1.822 2.91.365 13.072.365 13.072s-1.855 3.625-2.936-10.02c-.325-4.098 2.122-3.77 2.57-3.051z" fill="#F7B68B"/><path id="Vector_29" d="M75.125 55.415c1.696-3.607 12.578-10.142 12.578-10.142s4.73-1.298-7.956 9.832c-3.807 3.342-5.04 1.199-4.622.31z" fill="#F7B68B"/><path id="Vector_30" d="M92.608 40.881l.195.302-.328 1.193s-1.406 1.73-2.17 2.191c-.765.462-2.851 3.172-3.19 3.424-.34.252-2.121-.594-2.121-.594s2.766-2.209 3.788-3.178c1.021-.968 2.003-2.854 2.39-3.249.66-.673.956-1.051.956-1.051s.312.401-.662 1.52c-.257.294.208.424.208.424l.934-.983v.001z" fill="#F7B68B"/><path id="Vector_31" d="M72.872 70.717c-1.196-.355-1.284.515-2.32 2.628-2.029 4.141-3.466 10.393-3.364 17.181.12 7.95 1.245 14.962 2.905 19.446 1.506-3.598 2.453-7.997 3.335-12.883 2.741-15.204 3.121-25.28-.556-26.372z" fill="#F7B68B"/><path id="Vector_32" d="M71.852 89.035c.228-2.681.385-5.113.462-7.273-.391-.481-.617-.213-1.322.03-1.365.469-2.74 1.848-3.7 4.067a72.665 72.665 0 0 0-.105 4.667c.015 1.76.063 3.47.14 5.121.544-.58 1.08-1.257 1.62-1.993 1.205-1.636 2.191-3.184 2.905-4.62z" fill="#EC9568"/><path id="Vector_33" d="M70.092 97.494c-.793-.407-2.24.598-3.244 2.595-1.969 3.915-2.585 9.279-2.936 15.913-.371 7.014-.384 12.245-.287 16.569.098 4.269-1.703 10.235 1.517 9.668-.377-5.874.6-14.573 2.323-19.134 5.89-15.573 5.067-24.36 2.627-25.61z" fill="#F7B68B"/><path id="Vector_34" d="M72.152 48.278l-12.454-.9-.618-14.351 15.488 2.416-2.416 12.835z" fill="#06357A"/><path id="Vector_35" d="M54.169 90.167l21.333-1.753c4.438-12.685 1.792-27.276-3.311-40.29l-12.554-1.032c-4.931 13.468-9.562 29.04-5.468 43.075z" fill="#06357A"/><path id="Vector_36" d="M52.386 46.979l8.936-12.486a1.985 1.985 0 0 0-.711-.94l-.23-.165a1.988 1.988 0 0 0-2.776.46l-7.81 10.91 2.59 2.22z" fill="#06357A"/><path id="Vector_37" d="M73.982 51.139l-1.369-15.294a1.976 1.976 0 0 1 1.09-.448l.282-.027a1.99 1.99 0 0 1 2.16 1.804l1.197 13.364-3.36.6z" fill="#06357A"/><path id="Vector_38" d="M54.464 59.411l.764-2.44a.426.426 0 0 1 .533-.28l.542.17c.225.071.35.31.28.534l-.764 2.44a.426.426 0 0 1-.534.28l-.542-.17a.425.425 0 0 1-.279-.534z" fill="#F7B68B"/><path id="Vector_39" d="M57.283 142.702c-1.016 2.787-2.44 4.829-3.176 4.56-.739-.269-.51-2.748.508-5.535s2.44-4.83 3.177-4.56c.736.268.51 2.747-.51 5.535z" fill="#0561FC"/><path id="Vector_40" d="M57.511 141.092c-.443 2.144-1.7 3.793-2.439 3.525-.737-.269-.676-2.072.167-4.093 1.063-2.557 1.494-3.302 1.421-5.042-.071-1.633 2.52-2.45.851 5.61z" fill="#F7B68B"/><path id="Vector_41" d="M63.76 138.855c0 .039.032.07.072.07h.141a.07.07 0 0 0 .07-.07.071.071 0 0 0-.07-.072h-.141a.072.072 0 0 0-.072.072z" fill="#fff"/><path id="Vector_42" d="M69.689 140.8c.32 1.343-3.798.801-4.864.453-1.017-.334-1.668-.439-1.668-.439-.043 0-.085-.007-.127-.007-.004.031-.014.063-.014.096 0 .738-.325 1.716.85 1.716h7.386c6.035 0-1.57-1.848-1.562-1.818l-.001-.001z" fill="#0561FC"/><path id="Vector_43" d="M92.04 42.321s.768-.84.84-1.41c.05-.394-.026-2.294-.026-2.294s-.43.56-.404 1.323c.04 1.114-.41 2.381-.41 2.381z" fill="#F7B68B"/><path id="Vector_44" d="M91.673 41.864s-.317-.067-.37-.202c-.048.097-.072.205-.098.284-.06.18-.693 1.296-.693 1.296s.614-.719.835-.888c.14-.107.382-.417.586-.674.025-.033.04-.102.075-.167l-.335.35v.001z" fill="#DEE7EC"/><path id="Vector_45" d="M91.465 41.44c.654-.752.728-1.18.705-1.379-.153.176-.404.46-.779.839-.133.137-.34.455-.595.85-.048.077.222.294.019 1.049-.037.136.545-.514.798-.957-.117-.048-.346-.176-.148-.402z" fill="#EC9568"/></g><defs><linearGradient id="paint0_linear_227_135" y1="121.58" x2="30.933" y2="121.58" gradientUnits="userSpaceOnUse"><stop stop-color="#39C2FF"/><stop offset="1" stop-color="#2642D3"/></linearGradient><linearGradient id="paint1_linear_227_135" x1="16.357" y1="121.603" x2="46.975" y2="121.603" gradientUnits="userSpaceOnUse"><stop stop-color="#39C2FF"/><stop offset="1" stop-color="#2642D3"/></linearGradient><linearGradient id="paint2_linear_227_135" x1="32.412" y1="112.606" x2="75.978" y2="112.606" gradientUnits="userSpaceOnUse"><stop stop-color="#39C2FF"/><stop offset="1" stop-color="#2642D3"/></linearGradient><linearGradient id="paint3_linear_227_135" x1="60.808" y1="110.179" x2="101.364" y2="110.179" gradientUnits="userSpaceOnUse"><stop stop-color="#39C2FF"/><stop offset="1" stop-color="#2642D3"/></linearGradient><linearGradient id="paint4_linear_227_135" x1="86.327" y1="85.553" x2="150" y2="85.553" gradientUnits="userSpaceOnUse"><stop stop-color="#39C2FF"/><stop offset="1" stop-color="#2642D3"/></linearGradient><clipPath id="clip0_227_135"><path fill="#fff" d="M0 0h150v147.286H0z"/></clipPath></defs></svg>